<?xml version="1.0" encoding="UTF-8"?>
<!DOCTYPE svg PUBLIC "-//W3C//DTD SVG 1.1//EN" "http://www.w3.org/Graphics/SVG/1.1/DTD/svg11.dtd">
<svg xmlns="http://www.w3.org/2000/svg" version="1.1" width="1024px" height="1024px" style="shape-rendering:geometricPrecision; text-rendering:geometricPrecision; image-rendering:optimizeQuality; fill-rule:evenodd; clip-rule:evenodd" xmlns:xlink="http://www.w3.org/1999/xlink">
<g><path style="opacity:1" fill="#000202" d="M -0.5,-0.5 C 340.833,-0.5 682.167,-0.5 1023.5,-0.5C 1023.5,340.833 1023.5,682.167 1023.5,1023.5C 682.167,1023.5 340.833,1023.5 -0.5,1023.5C -0.5,682.167 -0.5,340.833 -0.5,-0.5 Z"/></g>
<g><path style="opacity:1" fill="#0678ad" d="M 102.5,252.5 C 119.992,251.503 137.659,251.17 155.5,251.5C 155.768,253.099 155.434,254.432 154.5,255.5C 154.5,254.5 154.5,253.5 154.5,252.5C 137.167,252.5 119.833,252.5 102.5,252.5 Z"/></g>
<g><path style="opacity:1" fill="#0a79ad" d="M 570.5,252.5 C 569.833,252.5 569.167,252.5 568.5,252.5C 551.5,252.5 534.5,252.5 517.5,252.5C 517.737,253.791 517.404,254.791 516.5,255.5C 516.5,254.167 516.5,252.833 516.5,251.5C 534.674,251.17 552.674,251.503 570.5,252.5 Z"/></g>
<g><path style="opacity:1" fill="#0777aa" d="M 744.5,252.5 C 744.5,252.167 744.5,251.833 744.5,251.5C 761.167,251.5 777.833,251.5 794.5,251.5C 794.768,253.099 794.434,254.432 793.5,255.5C 793.5,254.5 793.5,253.5 793.5,252.5C 777.167,252.5 760.833,252.5 744.5,252.5 Z"/></g>
<g><path style="opacity:1" fill="#0d7cab" d="M 831.5,252.5 C 824.879,251.94 818.545,252.607 812.5,254.5C 812.5,253.5 812.5,252.5 812.5,251.5C 819.022,251.177 825.355,251.51 831.5,252.5 Z"/></g>
<g><path style="opacity:1" fill="#17a0dd" d="M 422.5,265.5 C 422.5,265.167 422.5,264.833 422.5,264.5C 430.833,264.5 439.167,264.5 447.5,264.5C 447.952,261.124 448.618,257.791 449.5,254.5C 436.833,253.167 424.167,253.167 411.5,254.5C 409.816,256.351 407.983,258.018 406,259.5C 405.586,259.043 405.086,258.709 404.5,258.5C 403.06,259.952 401.394,260.952 399.5,261.5C 402.054,257.781 405.387,254.948 409.5,253C 423.455,251.612 437.455,251.112 451.5,251.5C 450.704,256.147 450.037,260.814 449.5,265.5C 440.5,265.5 431.5,265.5 422.5,265.5 Z"/></g>
<g><path style="opacity:1" fill="#1cb2f0" d="M 744.5,252.5 C 760.833,252.5 777.167,252.5 793.5,252.5C 793.5,253.5 793.5,254.5 793.5,255.5C 793.167,258.833 792.833,262.167 792.5,265.5C 782.5,265.5 772.5,265.5 762.5,265.5C 771.416,264.501 781.082,264.168 791.5,264.5C 791.249,261.091 791.583,257.758 792.5,254.5C 777.181,253.501 761.848,253.167 746.5,253.5C 746.396,257.207 745.396,260.54 743.5,263.5C 743.423,259.785 743.756,256.119 744.5,252.5 Z"/></g>
<g><path style="opacity:1" fill="#1099de" d="M 207.5,334.5 C 208.26,333.107 208.926,331.607 209.5,330C 208.316,327.284 207.316,324.451 206.5,321.5C 202.661,320.279 202.661,319.612 206.5,319.5C 204.48,312.798 203.147,305.964 202.5,299C 204.807,298.221 206.807,298.721 208.5,300.5C 216.212,294.679 218.879,287.012 216.5,277.5C 217.325,276.614 218.325,276.281 219.5,276.5C 219.666,272.154 219.499,267.821 219,263.5C 218.71,261.956 218.044,260.623 217,259.5C 216.818,262.226 216.318,264.893 215.5,267.5C 213.611,264.41 211.945,261.243 210.5,258C 207.21,258.369 203.877,258.369 200.5,258C 209.661,256.225 209.661,255.392 200.5,255.5C 197.629,255.618 194.962,256.284 192.5,257.5C 187.739,255.63 182.739,254.963 177.5,255.5C 177.36,257.124 178.027,258.29 179.5,259C 178.437,260.188 177.103,260.688 175.5,260.5C 175.24,264.423 174.24,268.09 172.5,271.5C 171.833,269.5 171.167,267.5 170.5,265.5C 169.734,269.797 168.401,273.797 166.5,277.5C 168.221,268.895 169.554,260.228 170.5,251.5C 182.838,251.333 195.171,251.5 207.5,252C 217.204,252.371 222.204,257.371 222.5,267C 220.797,275.847 218.964,284.681 217,293.5C 214.82,298.853 210.987,302.187 205.5,303.5C 206.885,313.707 209.218,323.707 212.5,333.5C 210.955,334.452 209.288,334.785 207.5,334.5 Z"/></g>
<g><path style="opacity:1" fill="#0a9be5" d="M 568.5,252.5 C 568.5,252.833 568.5,253.167 568.5,253.5C 566.712,253.215 565.045,253.548 563.5,254.5C 563.488,256.412 563.821,258.412 564.5,260.5C 560.167,261.833 555.833,261.833 551.5,260.5C 551.709,259.914 552.043,259.414 552.5,259C 555.882,258.824 559.215,258.324 562.5,257.5C 558.324,257.03 554.158,256.696 550,256.5C 542.47,258.014 534.97,259.68 527.5,261.5C 526.754,262.736 526.421,264.07 526.5,265.5C 522.445,265.824 518.445,265.491 514.5,264.5C 515.169,261.47 515.835,258.47 516.5,255.5C 517.404,254.791 517.737,253.791 517.5,252.5C 534.5,252.5 551.5,252.5 568.5,252.5 Z"/></g>
<g><path style="opacity:1" fill="#0294e4" d="M 342.5,277.5 C 341.424,280.734 340.757,284.068 340.5,287.5C 339.5,287.5 338.5,287.5 337.5,287.5C 338.084,290.983 337.251,293.983 335,296.5C 334.34,293.953 334.507,291.453 335.5,289C 333.392,286.951 332.226,284.451 332,281.5C 331.667,282.5 331.333,283.5 331,284.5C 330.667,284.167 330.333,283.833 330,283.5C 329.51,284.793 329.343,286.127 329.5,287.5C 328.833,287.5 328.167,287.5 327.5,287.5C 327.631,286.761 327.464,286.094 327,285.5C 326.212,289.573 325.212,293.573 324,297.5C 323.64,295.392 322.973,293.392 322,291.5C 321.587,294.232 320.92,296.899 320,299.5C 319.667,297.833 319.333,296.167 319,294.5C 318.308,295.025 317.808,295.692 317.5,296.5C 318.488,299.45 319.321,302.45 320,305.5C 320.815,303.377 321.815,301.377 323,299.5C 323.167,300.667 323.333,301.833 323.5,303C 321.344,311.041 320.011,319.208 319.5,327.5C 318.448,327.649 317.448,327.483 316.5,327C 317.435,324.619 317.768,322.119 317.5,319.5C 316.5,319.5 315.5,319.5 314.5,319.5C 314.38,321.734 314.713,323.901 315.5,326C 315.05,327.285 314.383,328.452 313.5,329.5C 315.167,330.167 316.833,330.833 318.5,331.5C 314.167,332.833 309.833,332.833 305.5,331.5C 307.167,330.833 308.833,330.167 310.5,329.5C 308.532,327.598 307.532,325.265 307.5,322.5C 310.452,305.79 314.119,289.29 318.5,273C 318.265,272.127 317.931,271.293 317.5,270.5C 319.042,265.627 319.708,260.627 319.5,255.5C 324.833,255.5 330.167,255.5 335.5,255.5C 336.637,259.417 337.47,263.417 338,267.5C 340.238,270.513 341.738,273.846 342.5,277.5 Z"/></g>
<g><path style="opacity:1" fill="#149bdd" d="M 621.5,271.5 C 622.302,270.048 622.802,268.382 623,266.5C 623.497,269.146 623.664,271.813 623.5,274.5C 626.5,274.5 629.5,274.5 632.5,274.5C 633.722,270.835 633.722,267.169 632.5,263.5C 633.108,260.855 633.608,258.188 634,255.5C 634.249,256.624 634.749,257.624 635.5,258.5C 636.645,257.224 636.645,255.891 635.5,254.5C 625.167,253.167 614.833,253.167 604.5,254.5C 606.167,255.167 607.833,255.833 609.5,256.5C 605.393,258.295 604.727,260.795 607.5,264C 612.019,264.175 616.353,264.675 620.5,265.5C 617.15,265.335 613.817,265.502 610.5,266C 608.45,266.416 607.116,267.583 606.5,269.5C 605.637,270.463 604.97,270.463 604.5,269.5C 605.348,267.591 605.682,265.591 605.5,263.5C 604.448,263.351 603.448,263.517 602.5,264C 598.243,267.057 596.076,271.224 596,276.5C 595.333,273.167 595.333,269.833 596,266.5C 598.316,264.53 600.149,262.196 601.5,259.5C 600.965,257.899 599.965,257.399 598.5,258C 595.998,260.947 593.498,263.78 591,266.5C 589.395,269.648 588.395,272.981 588,276.5C 587.617,277.056 587.117,277.389 586.5,277.5C 586.517,275.435 586.85,273.435 587.5,271.5C 588.911,262.916 593.578,256.749 601.5,253C 613.786,251.63 626.12,251.13 638.5,251.5C 636.54,259.385 635.207,267.385 634.5,275.5C 630.167,275.5 625.833,275.5 621.5,275.5C 621.5,274.167 621.5,272.833 621.5,271.5 Z"/></g>
<g><path style="opacity:1" fill="#0595e4" d="M 621.5,271.5 C 621.795,269.265 621.461,267.265 620.5,265.5C 616.353,264.675 612.019,264.175 607.5,264C 604.727,260.795 605.393,258.295 609.5,256.5C 607.833,255.833 606.167,255.167 604.5,254.5C 614.833,253.167 625.167,253.167 635.5,254.5C 636.645,255.891 636.645,257.224 635.5,258.5C 634.749,257.624 634.249,256.624 634,255.5C 633.608,258.188 633.108,260.855 632.5,263.5C 633.722,267.169 633.722,270.835 632.5,274.5C 629.5,274.5 626.5,274.5 623.5,274.5C 623.664,271.813 623.497,269.146 623,266.5C 622.802,268.382 622.302,270.048 621.5,271.5 Z"/></g>
<g><path style="opacity:1" fill="#0397e5" d="M 831.5,253.5 C 831.5,267.5 831.5,281.5 831.5,295.5C 831.167,295.5 830.833,295.5 830.5,295.5C 830.664,292.813 830.497,290.146 830,287.5C 829.833,292 829.667,296.5 829.5,301C 829.357,306.005 829.857,310.839 831,315.5C 834.8,305.236 839.134,295.236 844,285.5C 844.005,290.147 843.838,294.814 843.5,299.5C 844.552,299.351 845.552,299.517 846.5,300C 845.359,300.741 845.359,301.575 846.5,302.5C 843.311,307.732 841.311,313.399 840.5,319.5C 839.227,324.319 837.561,328.985 835.5,333.5C 828.833,333.5 822.167,333.5 815.5,333.5C 815.581,307.147 815.414,280.813 815,254.5C 820.407,253.527 825.907,253.193 831.5,253.5 Z"/></g>
<g><path style="opacity:1" fill="#0396e5" d="M 422.5,264.5 C 419.104,263.802 415.771,263.802 412.5,264.5C 410.447,260.588 408.28,260.588 406,264.5C 405.383,265.449 405.549,266.282 406.5,267C 404.22,267.233 402.22,268.066 400.5,269.5C 399.526,267.257 399.192,264.924 399.5,262.5C 399.5,262.167 399.5,261.833 399.5,261.5C 401.394,260.952 403.06,259.952 404.5,258.5C 405.086,258.709 405.586,259.043 406,259.5C 407.983,258.018 409.816,256.351 411.5,254.5C 424.167,253.167 436.833,253.167 449.5,254.5C 448.618,257.791 447.952,261.124 447.5,264.5C 439.167,264.5 430.833,264.5 422.5,264.5 Z"/></g>
<g><path style="opacity:1" fill="#032440" d="M 744.5,251.5 C 744.5,251.833 744.5,252.167 744.5,252.5C 743.756,256.119 743.423,259.785 743.5,263.5C 742.833,265.167 742.167,266.833 741.5,268.5C 741.816,263.156 742.316,257.822 743,252.5C 743.383,251.944 743.883,251.611 744.5,251.5 Z"/></g>
<g><path style="opacity:1" fill="#0495ec" d="M 568.5,253.5 C 568.795,255.735 568.461,257.735 567.5,259.5C 566.566,260.568 566.232,261.901 566.5,263.5C 559.62,263.01 552.953,263.676 546.5,265.5C 545.5,265.167 544.5,264.833 543.5,264.5C 545.336,263.081 547.336,261.914 549.5,261C 546.345,258.99 543.512,259.49 541,262.5C 540.885,264.107 541.385,265.607 542.5,267C 542.387,268.28 541.72,269.113 540.5,269.5C 539.534,267.604 539.201,265.604 539.5,263.5C 535.029,262.911 531.029,263.577 527.5,265.5C 527.167,265.5 526.833,265.5 526.5,265.5C 526.421,264.07 526.754,262.736 527.5,261.5C 534.97,259.68 542.47,258.014 550,256.5C 554.158,256.696 558.324,257.03 562.5,257.5C 559.215,258.324 555.882,258.824 552.5,259C 552.043,259.414 551.709,259.914 551.5,260.5C 555.833,261.833 560.167,261.833 564.5,260.5C 563.821,258.412 563.488,256.412 563.5,254.5C 565.045,253.548 566.712,253.215 568.5,253.5 Z"/></g>
<g><path style="opacity:1" fill="#2daad3" d="M 568.5,252.5 C 569.167,252.5 569.833,252.5 570.5,252.5C 569.996,256.531 569.33,260.531 568.5,264.5C 562.872,265.495 557.206,265.829 551.5,265.5C 556.64,264.512 561.974,264.179 567.5,264.5C 567.5,262.833 567.5,261.167 567.5,259.5C 568.461,257.735 568.795,255.735 568.5,253.5C 568.5,253.167 568.5,252.833 568.5,252.5 Z"/></g>
<g><path style="opacity:1" fill="#0597e5" d="M 711.5,255.5 C 715.248,258.023 716.914,261.689 716.5,266.5C 716.372,271.16 715.372,275.493 713.5,279.5C 712.137,284.422 710.637,289.422 709,294.5C 707.553,296.403 705.886,298.07 704,299.5C 703.517,298.552 703.351,297.552 703.5,296.5C 701.473,296.662 699.473,296.495 697.5,296C 698.696,295.346 698.696,294.846 697.5,294.5C 695.333,295.792 693,296.625 690.5,297C 689.663,298.011 689.33,299.178 689.5,300.5C 685.002,299.251 680.502,299.251 676,300.5C 674.5,300.167 673,299.833 671.5,299.5C 673.743,298.526 676.076,298.192 678.5,298.5C 678.5,297.167 678.5,295.833 678.5,294.5C 681.39,294.278 684.057,294.945 686.5,296.5C 687.386,295.675 687.719,294.675 687.5,293.5C 688.5,293.5 689.5,293.5 690.5,293.5C 694.151,293.182 696.151,291.182 696.5,287.5C 697.551,280.722 698.384,274.056 699,267.5C 695.415,264.472 691.248,263.139 686.5,263.5C 684.5,263.667 682.5,263.833 680.5,264C 679.663,265.011 679.33,266.178 679.5,267.5C 676.598,275.127 674.931,283.127 674.5,291.5C 673.167,291.5 671.833,291.5 670.5,291.5C 670.28,285.631 670.614,279.797 671.5,274C 670.946,271.176 670.446,268.343 670,265.5C 669.097,264.299 667.931,263.465 666.5,263C 666.909,260.053 667.909,257.386 669.5,255C 668.5,254.667 667.5,254.333 666.5,254C 681.607,252.938 696.607,253.438 711.5,255.5 Z"/></g>
<g><path style="opacity:1" fill="#1c99d1" d="M 690.5,293.5 C 693.046,291.075 694.546,288.075 695,284.5C 696.766,278.876 697.266,273.209 696.5,267.5C 690.719,264.919 685.053,264.919 679.5,267.5C 679.33,266.178 679.663,265.011 680.5,264C 682.5,263.833 684.5,263.667 686.5,263.5C 691.248,263.139 695.415,264.472 699,267.5C 698.384,274.056 697.551,280.722 696.5,287.5C 696.151,291.182 694.151,293.182 690.5,293.5 Z"/></g>
<g><path style="opacity:1" fill="#0c99e1" d="M 567.5,259.5 C 567.5,261.167 567.5,262.833 567.5,264.5C 561.974,264.179 556.64,264.512 551.5,265.5C 547.816,283.59 544.149,301.59 540.5,319.5C 541.177,314.126 541.177,308.792 540.5,303.5C 539.478,306.441 538.645,309.441 538,312.5C 537.182,309.893 536.682,307.226 536.5,304.5C 536.613,302.026 537.613,300.026 539.5,298.5C 540.799,299.09 541.632,300.09 542,301.5C 544.204,295.064 544.871,288.397 544,281.5C 543.667,283.5 543.333,285.5 543,287.5C 541.657,278.318 540.49,278.318 539.5,287.5C 538.475,282.732 537.142,278.066 535.5,273.5C 537.44,270.804 536.773,269.471 533.5,269.5C 534.167,275.5 534.833,281.5 535.5,287.5C 532.227,287.529 531.56,286.196 533.5,283.5C 533.281,282.062 532.781,280.729 532,279.5C 531.015,285.873 529.848,292.206 528.5,298.5C 528.621,299.894 528.954,301.228 529.5,302.5C 528.675,303.386 527.675,303.719 526.5,303.5C 528.499,290.839 530.499,278.172 532.5,265.5C 530.833,265.5 529.167,265.5 527.5,265.5C 531.029,263.577 535.029,262.911 539.5,263.5C 539.201,265.604 539.534,267.604 540.5,269.5C 541.72,269.113 542.387,268.28 542.5,267C 541.385,265.607 540.885,264.107 541,262.5C 543.512,259.49 546.345,258.99 549.5,261C 547.336,261.914 545.336,263.081 543.5,264.5C 544.5,264.833 545.5,265.167 546.5,265.5C 552.953,263.676 559.62,263.01 566.5,263.5C 566.232,261.901 566.566,260.568 567.5,259.5 Z"/></g>
<g><path style="opacity:1" fill="#1099de" d="M 711.5,255.5 C 696.607,253.438 681.607,252.938 666.5,254C 667.5,254.333 668.5,254.667 669.5,255C 667.909,257.386 666.909,260.053 666.5,263C 667.931,263.465 669.097,264.299 670,265.5C 670.446,268.343 670.946,271.176 671.5,274C 670.614,279.797 670.28,285.631 670.5,291.5C 671.833,291.5 673.167,291.5 674.5,291.5C 674.931,283.127 676.598,275.127 679.5,267.5C 678.167,276.167 676.833,284.833 675.5,293.5C 679.5,293.5 683.5,293.5 687.5,293.5C 687.719,294.675 687.386,295.675 686.5,296.5C 684.057,294.945 681.39,294.278 678.5,294.5C 678.5,295.833 678.5,297.167 678.5,298.5C 676.076,298.192 673.743,298.526 671.5,299.5C 673,299.833 674.5,300.167 676,300.5C 680.502,299.251 685.002,299.251 689.5,300.5C 689.33,299.178 689.663,298.011 690.5,297C 693,296.625 695.333,295.792 697.5,294.5C 698.696,294.846 698.696,295.346 697.5,296C 699.473,296.495 701.473,296.662 703.5,296.5C 703.351,297.552 703.517,298.552 704,299.5C 705.886,298.07 707.553,296.403 709,294.5C 710.637,289.422 712.137,284.422 713.5,279.5C 714.671,291.46 709.838,299.793 699,304.5C 699.319,308.136 699.819,311.803 700.5,315.5C 698.431,311.507 697.098,307.173 696.5,302.5C 697.325,301.614 698.325,301.281 699.5,301.5C 699.5,300.5 699.5,299.5 699.5,298.5C 695.896,300.092 692.062,301.426 688,302.5C 687.439,301.978 686.772,301.645 686,301.5C 681.205,302.254 676.372,302.754 671.5,303C 676.683,303.429 681.683,304.596 686.5,306.5C 687.534,309.057 686.534,310.391 683.5,310.5C 684.159,313.455 684.492,316.455 684.5,319.5C 683.029,315.301 681.695,310.967 680.5,306.5C 677.833,306.5 675.167,306.5 672.5,306.5C 670.349,315.71 669.015,325.043 668.5,334.5C 662.167,334.5 655.833,334.5 649.5,334.5C 654.112,306.774 659.112,279.107 664.5,251.5C 677.504,251.333 690.504,251.5 703.5,252C 706.599,252.387 709.266,253.554 711.5,255.5 Z"/></g>
<g><path style="opacity:1" fill="#22a8e0" d="M 831.5,252.5 C 831.5,252.833 831.5,253.167 831.5,253.5C 825.907,253.193 820.407,253.527 815,254.5C 815.414,280.813 815.581,307.147 815.5,333.5C 822.167,333.5 828.833,333.5 835.5,333.5C 828.687,334.491 821.687,334.825 814.5,334.5C 814.825,326.648 814.492,318.982 813.5,311.5C 813.82,292.424 813.487,273.424 812.5,254.5C 818.545,252.607 824.879,251.94 831.5,252.5 Z"/></g>
<g><path style="opacity:1" fill="#0a99e2" d="M 102.5,252.5 C 119.833,252.5 137.167,252.5 154.5,252.5C 154.5,253.5 154.5,254.5 154.5,255.5C 153.949,258.807 153.616,262.14 153.5,265.5C 147.5,265.5 141.5,265.5 135.5,265.5C 133.117,278.347 130.45,291.013 127.5,303.5C 127.169,299.086 126.335,294.752 125,290.5C 123.086,294.089 120.752,297.422 118,300.5C 117.5,300 117,299.5 116.5,299C 117.997,296.008 118.997,292.841 119.5,289.5C 118.497,283.512 118.497,277.512 119.5,271.5C 120.5,271.5 121.5,271.5 122.5,271.5C 122.338,273.527 122.505,275.527 123,277.5C 124.079,274.937 124.579,272.271 124.5,269.5C 126.308,269.491 127.975,269.991 129.5,271C 128.773,272.399 128.273,273.899 128,275.5C 127.187,270.226 126.687,270.226 126.5,275.5C 127,279.5 127.5,283.5 128,287.5C 129.366,282.24 130.199,276.907 130.5,271.5C 131.5,271.5 132.5,271.5 133.5,271.5C 133.292,269.08 133.626,266.747 134.5,264.5C 140.463,263.504 146.463,263.171 152.5,263.5C 152.5,261.167 152.5,258.833 152.5,256.5C 143.446,256.194 134.446,256.528 125.5,257.5C 121.729,255.324 117.729,254.991 113.5,256.5C 113.709,257.086 114.043,257.586 114.5,258C 117.167,258 119.833,258 122.5,258C 123.167,259 123.833,260 124.5,261C 120.195,260.923 115.862,260.756 111.5,260.5C 111.5,259.167 111.5,257.833 111.5,256.5C 110.325,256.281 109.325,256.614 108.5,257.5C 109.711,258.72 109.711,259.887 108.5,261C 106.423,261.192 104.423,261.692 102.5,262.5C 107.243,262.877 111.576,263.877 115.5,265.5C 110.5,265.5 105.5,265.5 100.5,265.5C 100.687,261.087 101.354,256.754 102.5,252.5 Z"/></g>
<g><path style="opacity:1" fill="#179ad7" d="M 347.5,287.5 C 345.334,284.502 343.667,281.168 342.5,277.5C 341.738,273.846 340.238,270.513 338,267.5C 337.47,263.417 336.637,259.417 335.5,255.5C 330.167,255.5 324.833,255.5 319.5,255.5C 319.708,260.627 319.042,265.627 317.5,270.5C 317.931,271.293 318.265,272.127 318.5,273C 314.119,289.29 310.452,305.79 307.5,322.5C 307.532,325.265 308.532,327.598 310.5,329.5C 308.833,330.167 307.167,330.833 305.5,331.5C 309.833,332.833 314.167,332.833 318.5,331.5C 316.833,330.833 315.167,330.167 313.5,329.5C 314.383,328.452 315.05,327.285 315.5,326C 314.713,323.901 314.38,321.734 314.5,319.5C 315.5,319.5 316.5,319.5 317.5,319.5C 317.768,322.119 317.435,324.619 316.5,327C 317.448,327.483 318.448,327.649 319.5,327.5C 320.011,319.208 321.344,311.041 323.5,303C 323.333,301.833 323.167,300.667 323,299.5C 321.815,301.377 320.815,303.377 320,305.5C 319.321,302.45 318.488,299.45 317.5,296.5C 317.808,295.692 318.308,295.025 319,294.5C 319.333,296.167 319.667,297.833 320,299.5C 320.92,296.899 321.587,294.232 322,291.5C 322.973,293.392 323.64,295.392 324,297.5C 325.212,293.573 326.212,289.573 327,285.5C 327.464,286.094 327.631,286.761 327.5,287.5C 324.941,303.186 322.275,318.852 319.5,334.5C 314.167,334.5 308.833,334.5 303.5,334.5C 308.772,307.204 313.939,279.871 319,252.5C 324.667,251.167 330.333,251.167 336,252.5C 340.303,264.06 344.137,275.727 347.5,287.5 Z"/></g>
<g><path style="opacity:1" fill="#0496e4" d="M 207.5,334.5 C 202.833,334.5 198.167,334.5 193.5,334.5C 192.636,328.047 191.302,321.713 189.5,315.5C 189.5,312.167 189.5,308.833 189.5,305.5C 185.561,305.041 181.727,305.041 178,305.5C 177.257,303.355 176.424,303.189 175.5,305C 176.037,306.792 176.37,308.625 176.5,310.5C 174.978,317.772 173.978,325.105 173.5,332.5C 168.167,332.5 162.833,332.5 157.5,332.5C 159.943,321.953 161.61,311.286 162.5,300.5C 162.937,292.664 164.271,284.997 166.5,277.5C 168.401,273.797 169.734,269.797 170.5,265.5C 171.167,267.5 171.833,269.5 172.5,271.5C 174.24,268.09 175.24,264.423 175.5,260.5C 177.103,260.688 178.437,260.188 179.5,259C 178.027,258.29 177.36,257.124 177.5,255.5C 182.739,254.963 187.739,255.63 192.5,257.5C 194.962,256.284 197.629,255.618 200.5,255.5C 209.661,255.392 209.661,256.225 200.5,258C 203.877,258.369 207.21,258.369 210.5,258C 211.945,261.243 213.611,264.41 215.5,267.5C 216.318,264.893 216.818,262.226 217,259.5C 218.044,260.623 218.71,261.956 219,263.5C 219.499,267.821 219.666,272.154 219.5,276.5C 218.325,276.281 217.325,276.614 216.5,277.5C 218.879,287.012 216.212,294.679 208.5,300.5C 206.807,298.721 204.807,298.221 202.5,299C 203.147,305.964 204.48,312.798 206.5,319.5C 202.661,319.612 202.661,320.279 206.5,321.5C 207.316,324.451 208.316,327.284 209.5,330C 208.926,331.607 208.26,333.107 207.5,334.5 Z"/></g>
<g><path style="opacity:1" fill="#05070c" d="M 690.5,293.5 C 689.5,293.5 688.5,293.5 687.5,293.5C 683.5,293.5 679.5,293.5 675.5,293.5C 676.833,284.833 678.167,276.167 679.5,267.5C 685.053,264.919 690.719,264.919 696.5,267.5C 697.266,273.209 696.766,278.876 695,284.5C 694.546,288.075 693.046,291.075 690.5,293.5 Z"/></g>
<g><path style="opacity:1" fill="#1da0d6" d="M 492.5,271.5 C 489.581,288.372 486.248,305.038 482.5,321.5C 484.171,308.799 486.004,296.132 488,283.5C 489.183,279.148 490.683,275.148 492.5,271.5 Z"/></g>
<g><path style="opacity:1" fill="#0496e5" d="M 606.5,269.5 C 602.97,284.333 599.97,299.333 597.5,314.5C 597.436,316.557 598.102,318.223 599.5,319.5C 599.5,319.833 599.5,320.167 599.5,320.5C 607.316,321.492 615.316,321.826 623.5,321.5C 623.5,324.833 623.5,328.167 623.5,331.5C 623.5,331.833 623.5,332.167 623.5,332.5C 611.495,332.667 599.495,332.5 587.5,332C 584.227,331.06 582.394,328.893 582,325.5C 580.809,314.251 581.975,303.251 585.5,292.5C 586.082,288.182 586.415,283.849 586.5,279.5C 586.5,278.833 586.5,278.167 586.5,277.5C 587.117,277.389 587.617,277.056 588,276.5C 588.395,272.981 589.395,269.648 591,266.5C 593.498,263.78 595.998,260.947 598.5,258C 599.965,257.399 600.965,257.899 601.5,259.5C 600.149,262.196 598.316,264.53 596,266.5C 595.333,269.833 595.333,273.167 596,276.5C 596.076,271.224 598.243,267.057 602.5,264C 603.448,263.517 604.448,263.351 605.5,263.5C 605.682,265.591 605.348,267.591 604.5,269.5C 604.97,270.463 605.637,270.463 606.5,269.5 Z"/></g>
<g><path style="opacity:1" fill="#1ca4dd" d="M 282.5,252.5 C 284.462,277.451 285.796,302.451 286.5,327.5C 283.868,304.911 282.201,280.245 281.5,253.5C 274.492,253.666 267.492,253.5 260.5,253C 267.826,252.5 275.159,252.334 282.5,252.5 Z"/></g>
<g><path style="opacity:1" fill="#139adc" d="M 199.5,291.5 C 202.018,283.709 203.184,275.709 203,267.5C 201.989,266.663 200.822,266.33 199.5,266.5C 195.366,265.515 191.032,265.182 186.5,265.5C 184.834,274.829 183.168,284.163 181.5,293.5C 186.032,293.818 190.366,293.485 194.5,292.5C 195.833,292.167 197.167,291.833 198.5,291.5C 198.423,292.75 197.756,293.583 196.5,294C 191.833,294.333 187.167,294.667 182.5,295C 183.308,295.308 183.975,295.808 184.5,296.5C 181.232,297.487 177.898,297.82 174.5,297.5C 174.334,292.156 174.501,286.823 175,281.5C 175.333,283.5 175.667,285.5 176,287.5C 176.579,283.614 177.412,283.614 178.5,287.5C 174.89,289.712 175.557,290.712 180.5,290.5C 180.337,285.396 181.003,280.396 182.5,275.5C 182.213,273.514 181.547,271.68 180.5,270C 181.032,267.98 182.365,267.147 184.5,267.5C 184.5,266.167 184.5,264.833 184.5,263.5C 191.348,263.583 198.015,264.583 204.5,266.5C 204.833,267.667 205.167,268.833 205.5,270C 204.247,276.781 203.414,283.615 203,290.5C 201.989,291.337 200.822,291.67 199.5,291.5 Z"/></g>
<g><path style="opacity:1" fill="#05172c" d="M 199.5,266.5 C 195.5,266.5 191.5,266.5 187.5,266.5C 187.215,275.116 185.548,283.45 182.5,291.5C 186.445,292.491 190.445,292.824 194.5,292.5C 190.366,293.485 186.032,293.818 181.5,293.5C 183.168,284.163 184.834,274.829 186.5,265.5C 191.032,265.182 195.366,265.515 199.5,266.5 Z"/></g>
<g><path style="opacity:1" fill="#060407" d="M 199.5,266.5 C 200.822,266.33 201.989,266.663 203,267.5C 203.184,275.709 202.018,283.709 199.5,291.5C 199.167,291.5 198.833,291.5 198.5,291.5C 197.167,291.833 195.833,292.167 194.5,292.5C 190.445,292.824 186.445,292.491 182.5,291.5C 185.548,283.45 187.215,275.116 187.5,266.5C 191.5,266.5 195.5,266.5 199.5,266.5 Z"/></g>
<g><path style="opacity:1" fill="#0e99df" d="M 422.5,264.5 C 422.5,264.833 422.5,265.167 422.5,265.5C 416.224,266.445 413.224,270.112 413.5,276.5C 412.732,277.263 412.232,278.263 412,279.5C 411.833,278.5 411.667,277.5 411.5,276.5C 412.189,273.442 412.689,270.442 413,267.5C 411.684,270.028 410.517,270.028 409.5,267.5C 406.207,269.403 405.207,272.069 406.5,275.5C 408.49,272.822 409.823,273.155 410.5,276.5C 410.441,278.767 409.608,279.433 408,278.5C 406.851,281.393 406.351,284.393 406.5,287.5C 408.604,287.201 410.604,287.534 412.5,288.5C 412,288.833 411.5,289.167 411,289.5C 407.082,288.47 403.416,288.47 400,289.5C 399.833,289.167 399.667,288.833 399.5,288.5C 400.689,287.571 402.022,287.238 403.5,287.5C 403.274,284.751 403.607,282.084 404.5,279.5C 402.722,277.055 401.389,274.389 400.5,271.5C 398.854,272.779 397.687,274.445 397,276.5C 396.249,281.572 396.582,286.572 398,291.5C 399.663,293.917 401.829,295.75 404.5,297C 410.667,298.167 416.833,299.333 423,300.5C 425.389,300.518 427.556,299.851 429.5,298.5C 425.717,296.976 421.717,295.976 417.5,295.5C 422.363,293.325 421.697,292.325 415.5,292.5C 415.5,291.5 415.5,290.5 415.5,289.5C 418.206,289.425 420.873,289.092 423.5,288.5C 423.5,287.5 423.5,286.5 423.5,285.5C 431.969,285.221 438.469,288.554 443,295.5C 443.657,303.879 442.49,311.879 439.5,319.5C 439.496,311.733 439.996,304.066 441,296.5C 437.427,288.649 432.261,287.483 425.5,293C 427.345,294.128 429.345,294.628 431.5,294.5C 432.401,298.241 431.068,300.241 427.5,300.5C 425.812,305.992 425.145,311.659 425.5,317.5C 423.641,317.461 422.308,318.294 421.5,320C 422.167,320.333 422.833,320.667 423.5,321C 422.881,322.757 421.714,323.924 420,324.5C 415.978,323.267 411.811,322.6 407.5,322.5C 403.833,322.833 400.167,323.167 396.5,323.5C 395.204,327.039 393.371,327.373 391,324.5C 390.617,325.056 390.117,325.389 389.5,325.5C 389.33,324.178 389.663,323.011 390.5,322C 399.01,321.829 407.343,321.329 415.5,320.5C 423.128,317.323 425.794,311.656 423.5,303.5C 416.784,300.853 409.784,299.019 402.5,298C 396.999,295.002 394.332,290.335 394.5,284C 394.977,276.428 396.644,269.262 399.5,262.5C 399.192,264.924 399.526,267.257 400.5,269.5C 402.22,268.066 404.22,267.233 406.5,267C 405.549,266.282 405.383,265.449 406,264.5C 408.28,260.588 410.447,260.588 412.5,264.5C 415.771,263.802 419.104,263.802 422.5,264.5 Z"/></g>
<g><path style="opacity:1" fill="#051327" d="M 587.5,271.5 C 586.85,273.435 586.517,275.435 586.5,277.5C 586.5,278.167 586.5,278.833 586.5,279.5C 584.714,287.549 582.714,295.549 580.5,303.5C 581.55,296.2 582.716,288.867 584,281.5C 584.568,277.726 585.735,274.393 587.5,271.5 Z"/></g>
<g><path style="opacity:1" fill="#0495e4" d="M 413.5,276.5 C 413.104,279.044 413.771,281.211 415.5,283C 418.379,283.546 421.046,284.379 423.5,285.5C 423.5,286.5 423.5,287.5 423.5,288.5C 420.873,289.092 418.206,289.425 415.5,289.5C 415.5,290.5 415.5,291.5 415.5,292.5C 421.697,292.325 422.363,293.325 417.5,295.5C 421.717,295.976 425.717,296.976 429.5,298.5C 427.556,299.851 425.389,300.518 423,300.5C 416.833,299.333 410.667,298.167 404.5,297C 401.829,295.75 399.663,293.917 398,291.5C 396.582,286.572 396.249,281.572 397,276.5C 397.687,274.445 398.854,272.779 400.5,271.5C 401.389,274.389 402.722,277.055 404.5,279.5C 403.607,282.084 403.274,284.751 403.5,287.5C 402.022,287.238 400.689,287.571 399.5,288.5C 399.667,288.833 399.833,289.167 400,289.5C 403.416,288.47 407.082,288.47 411,289.5C 411.5,289.167 412,288.833 412.5,288.5C 410.604,287.534 408.604,287.201 406.5,287.5C 406.351,284.393 406.851,281.393 408,278.5C 409.608,279.433 410.441,278.767 410.5,276.5C 409.823,273.155 408.49,272.822 406.5,275.5C 405.207,272.069 406.207,269.403 409.5,267.5C 410.517,270.028 411.684,270.028 413,267.5C 412.689,270.442 412.189,273.442 411.5,276.5C 411.667,277.5 411.833,278.5 412,279.5C 412.232,278.263 412.732,277.263 413.5,276.5 Z"/></g>
<g><path style="opacity:1" fill="#0595e5" d="M 127.5,303.5 C 126.5,303.5 125.5,303.5 124.5,303.5C 124.646,301.058 123.813,300.391 122,301.5C 121.512,306.573 122.012,311.573 123.5,316.5C 122.701,321.824 122.035,327.157 121.5,332.5C 116.156,332.666 110.823,332.499 105.5,332C 106.451,328.943 106.784,325.777 106.5,322.5C 109.445,304.441 112.778,286.441 116.5,268.5C 116.48,267.274 116.147,266.274 115.5,265.5C 111.576,263.877 107.243,262.877 102.5,262.5C 104.423,261.692 106.423,261.192 108.5,261C 109.711,259.887 109.711,258.72 108.5,257.5C 109.325,256.614 110.325,256.281 111.5,256.5C 111.5,257.833 111.5,259.167 111.5,260.5C 115.862,260.756 120.195,260.923 124.5,261C 123.833,260 123.167,259 122.5,258C 119.833,258 117.167,258 114.5,258C 114.043,257.586 113.709,257.086 113.5,256.5C 117.729,254.991 121.729,255.324 125.5,257.5C 134.446,256.528 143.446,256.194 152.5,256.5C 152.5,258.833 152.5,261.167 152.5,263.5C 146.463,263.171 140.463,263.504 134.5,264.5C 133.626,266.747 133.292,269.08 133.5,271.5C 132.5,271.5 131.5,271.5 130.5,271.5C 130.199,276.907 129.366,282.24 128,287.5C 127.5,283.5 127,279.5 126.5,275.5C 126.687,270.226 127.187,270.226 128,275.5C 128.273,273.899 128.773,272.399 129.5,271C 127.975,269.991 126.308,269.491 124.5,269.5C 124.579,272.271 124.079,274.937 123,277.5C 122.505,275.527 122.338,273.527 122.5,271.5C 121.5,271.5 120.5,271.5 119.5,271.5C 118.497,277.512 118.497,283.512 119.5,289.5C 118.997,292.841 117.997,296.008 116.5,299C 117,299.5 117.5,300 118,300.5C 120.752,297.422 123.086,294.089 125,290.5C 126.335,294.752 127.169,299.086 127.5,303.5 Z"/></g>
<g><path style="opacity:1" fill="#0797e3" d="M 282.5,252.5 C 275.159,252.334 267.826,252.5 260.5,253C 267.492,253.5 274.492,253.666 281.5,253.5C 282.201,280.245 283.868,304.911 286.5,327.5C 287.461,329.265 287.795,331.265 287.5,333.5C 282.125,333.828 276.792,333.495 271.5,332.5C 271.192,331.692 270.692,331.025 270,330.5C 269.823,326.644 269.323,322.977 268.5,319.5C 261.913,317.539 254.913,316.872 247.5,317.5C 246.737,321.137 245.403,324.47 243.5,327.5C 242.521,328.765 241.521,330.099 240.5,331.5C 236.167,332.833 231.833,332.833 227.5,331.5C 228.559,328.382 229.892,325.382 231.5,322.5C 234.494,320.11 237.327,320.11 240,322.5C 240.402,321.128 240.902,319.795 241.5,318.5C 241.167,318.167 240.833,317.833 240.5,317.5C 238.477,319.173 236.144,319.84 233.5,319.5C 235.178,314.151 236.844,308.818 238.5,303.5C 245.506,286.145 252.506,268.812 259.5,251.5C 267.352,251.175 275.018,251.508 282.5,252.5 Z"/></g>
<g><path style="opacity:1" fill="#00273f" d="M 267.5,303.5 C 267.828,292.654 267.494,281.987 266.5,271.5C 266.281,270.325 266.614,269.325 267.5,268.5C 268.824,280.327 268.824,291.993 267.5,303.5 Z"/></g>
<g><path style="opacity:1" fill="#06070b" d="M 266.5,271.5 C 267.494,281.987 267.828,292.654 267.5,303.5C 263.116,303.826 258.783,303.492 254.5,302.5C 258.136,291.91 262.136,281.577 266.5,271.5 Z"/></g>
<g><path style="opacity:1" fill="#169cdd" d="M 851.5,263.5 C 850.352,269.781 848.686,275.948 846.5,282C 848.29,285.924 848.623,289.924 847.5,294C 847.63,295.059 848.13,295.892 849,296.5C 849.943,292.772 851.777,289.772 854.5,287.5C 850.176,298.133 845.842,308.799 841.5,319.5C 841.167,319.5 840.833,319.5 840.5,319.5C 841.311,313.399 843.311,307.732 846.5,302.5C 845.359,301.575 845.359,300.741 846.5,300C 845.552,299.517 844.552,299.351 843.5,299.5C 843.838,294.814 844.005,290.147 844,285.5C 839.134,295.236 834.8,305.236 831,315.5C 829.857,310.839 829.357,306.005 829.5,301C 829.667,296.5 829.833,292 830,287.5C 830.497,290.146 830.664,292.813 830.5,295.5C 830.334,300.511 830.501,305.511 831,310.5C 831.608,308.846 832.108,307.179 832.5,305.5C 838.836,291.489 845.169,277.489 851.5,263.5 Z"/></g>
<g><path style="opacity:1" fill="#0295e4" d="M 540.5,319.5 C 538.374,323.445 537.374,327.778 537.5,332.5C 532.5,332.5 527.5,332.5 522.5,332.5C 522.802,329.941 522.468,327.607 521.5,325.5C 521.232,323.901 521.566,322.568 522.5,321.5C 525.922,316.085 527.255,310.085 526.5,303.5C 527.675,303.719 528.675,303.386 529.5,302.5C 528.954,301.228 528.621,299.894 528.5,298.5C 529.848,292.206 531.015,285.873 532,279.5C 532.781,280.729 533.281,282.062 533.5,283.5C 531.56,286.196 532.227,287.529 535.5,287.5C 534.833,281.5 534.167,275.5 533.5,269.5C 536.773,269.471 537.44,270.804 535.5,273.5C 537.142,278.066 538.475,282.732 539.5,287.5C 540.49,278.318 541.657,278.318 543,287.5C 543.333,285.5 543.667,283.5 544,281.5C 544.871,288.397 544.204,295.064 542,301.5C 541.632,300.09 540.799,299.09 539.5,298.5C 537.613,300.026 536.613,302.026 536.5,304.5C 536.682,307.226 537.182,309.893 538,312.5C 538.645,309.441 539.478,306.441 540.5,303.5C 541.177,308.792 541.177,314.126 540.5,319.5 Z"/></g>
<g><path style="opacity:1" fill="#050a1a" d="M 870.5,253.5 C 872.316,264.456 873.149,275.789 873,287.5C 874,290.167 875,292.833 876,295.5C 876.008,292.655 877.175,290.655 879.5,289.5C 877.606,295.617 875.439,301.617 873,307.5C 871.799,289.514 870.966,271.514 870.5,253.5 Z"/></g>
<g><path style="opacity:1" fill="#0697e4" d="M 870.5,253.5 C 870.966,271.514 871.799,289.514 873,307.5C 875.439,301.617 877.606,295.617 879.5,289.5C 880.87,287.75 881.87,285.75 882.5,283.5C 883.496,283.586 884.329,283.252 885,282.5C 886.505,275.12 889.505,268.453 894,262.5C 894.914,266.185 895.581,265.852 896,261.5C 899.314,264.755 899.148,267.755 895.5,270.5C 897.396,271.466 899.396,271.799 901.5,271.5C 900.099,276.984 898.099,282.317 895.5,287.5C 895.167,287 894.833,286.5 894.5,286C 895.096,282.282 895.762,278.616 896.5,275C 895.44,273.702 894.274,272.535 893,271.5C 892.5,271.833 892,272.167 891.5,272.5C 892.891,274.62 893.558,276.953 893.5,279.5C 892.32,283.63 891.32,287.797 890.5,292C 889.491,293.168 888.491,294.335 887.5,295.5C 889.436,298.208 889.936,301.208 889,304.5C 887.725,306.717 886.725,309.051 886,311.5C 884.667,312.833 883.333,312.833 882,311.5C 882.996,317.024 882.162,322.357 879.5,327.5C 878.675,328.386 877.675,328.719 876.5,328.5C 876.5,329.833 876.5,331.167 876.5,332.5C 871.588,333.026 866.922,332.359 862.5,330.5C 861.914,330.709 861.414,331.043 861,331.5C 860.168,322.149 860.335,312.816 861.5,303.5C 862.869,308.844 863.536,308.677 863.5,303C 862.955,297.804 862.288,292.637 861.5,287.5C 859.861,287.074 858.528,287.074 857.5,287.5C 856.778,287.082 856.278,286.416 856,285.5C 855.722,286.416 855.222,287.082 854.5,287.5C 851.777,289.772 849.943,292.772 849,296.5C 848.13,295.892 847.63,295.059 847.5,294C 848.623,289.924 848.29,285.924 846.5,282C 848.686,275.948 850.352,269.781 851.5,263.5C 851.949,260.359 852.949,257.359 854.5,254.5C 859.792,253.505 865.125,253.172 870.5,253.5 Z"/></g>
<g><path style="opacity:1" fill="#1ba3dd" d="M 760.5,266.5 C 758.961,272.737 757.961,279.071 757.5,285.5C 766.525,285.168 775.525,285.502 784.5,286.5C 783.604,290.882 782.604,295.216 781.5,299.5C 772.167,299.5 762.833,299.5 753.5,299.5C 753.461,303.733 752.795,307.733 751.5,311.5C 751.669,306.819 752.002,302.152 752.5,297.5C 761.5,297.5 770.5,297.5 779.5,297.5C 780.684,294.436 781.684,291.269 782.5,288C 774.118,287.804 765.785,287.304 757.5,286.5C 756.578,281.507 756.745,276.507 758,271.5C 758.099,269.347 758.933,267.681 760.5,266.5 Z"/></g>
<g><path style="opacity:1" fill="#01192d" d="M 781.5,299.5 C 772.682,300.493 763.682,300.827 754.5,300.5C 754.515,304.56 754.015,308.56 753,312.5C 752.617,313.056 752.117,313.389 751.5,313.5C 751.5,312.833 751.5,312.167 751.5,311.5C 752.795,307.733 753.461,303.733 753.5,299.5C 762.833,299.5 772.167,299.5 781.5,299.5 Z"/></g>
<g><path style="opacity:1" fill="#0797e1" d="M 367.5,301.5 C 367.31,295.595 367.31,289.595 367.5,283.5C 366.689,282.784 366.022,281.95 365.5,281C 366.367,277.895 366.701,274.728 366.5,271.5C 365.5,271.5 364.5,271.5 363.5,271.5C 363.187,268.753 363.52,266.086 364.5,263.5C 366.069,262.286 366.902,260.619 367,258.5C 367.333,259.5 367.667,260.5 368,261.5C 368.495,259.527 368.662,257.527 368.5,255.5C 367.167,255.5 365.833,255.5 364.5,255.5C 364.826,258.607 363.659,260.94 361,262.5C 359.267,271.77 358.1,280.937 357.5,290C 360.441,292.979 362.108,292.146 362.5,287.5C 363.5,287.5 364.5,287.5 365.5,287.5C 364.985,290.674 363.985,293.674 362.5,296.5C 363.333,298.5 363.166,300.166 362,301.5C 360.48,298.618 359.147,295.618 358,292.5C 356.989,293.337 355.822,293.67 354.5,293.5C 354.936,296.364 354.103,298.697 352,300.5C 351.577,299.044 350.744,298.544 349.5,299C 351.244,301.963 351.744,305.129 351,308.5C 349.731,307.095 349.231,305.429 349.5,303.5C 348.167,303.5 346.833,303.5 345.5,303.5C 345.277,306.114 346.444,307.781 349,308.5C 349.627,311.716 350.461,314.883 351.5,318C 351.167,319.167 350.833,320.333 350.5,321.5C 348.939,320.653 347.439,320.986 346,322.5C 345,321.167 344,319.833 343,318.5C 342.517,319.448 342.351,320.448 342.5,321.5C 337.641,310.435 333.308,299.102 329.5,287.5C 329.343,286.127 329.51,284.793 330,283.5C 330.333,283.833 330.667,284.167 331,284.5C 331.333,283.5 331.667,282.5 332,281.5C 332.226,284.451 333.392,286.951 335.5,289C 334.507,291.453 334.34,293.953 335,296.5C 337.251,293.983 338.084,290.983 337.5,287.5C 338.5,287.5 339.5,287.5 340.5,287.5C 340.757,284.068 341.424,280.734 342.5,277.5C 343.667,281.168 345.334,284.502 347.5,287.5C 348.991,290.72 350.491,294.054 352,297.5C 355.486,282.236 358.653,266.903 361.5,251.5C 366.5,251.5 371.5,251.5 376.5,251.5C 373.501,268.163 370.501,284.829 367.5,301.5 Z"/></g>
<g><path style="opacity:1" fill="#0295e7" d="M 367.5,301.5 C 367.672,302.492 367.338,303.158 366.5,303.5C 363.351,312.669 361.351,322.336 360.5,332.5C 355.833,332.5 351.167,332.5 346.5,332.5C 346.227,330.549 346.893,329.049 348.5,328C 351.518,328.499 354.518,328.332 357.5,327.5C 356.687,326.186 355.687,325.019 354.5,324C 356.108,323.531 357.775,322.865 359.5,322C 358.711,318.903 357.544,318.736 356,321.5C 355.808,319.423 355.308,317.423 354.5,315.5C 353.914,315.709 353.414,316.043 353,316.5C 352.503,319.146 352.336,321.813 352.5,324.5C 349.346,323.905 346.346,323.905 343.5,324.5C 343.737,323.209 343.404,322.209 342.5,321.5C 342.351,320.448 342.517,319.448 343,318.5C 344,319.833 345,321.167 346,322.5C 347.439,320.986 348.939,320.653 350.5,321.5C 350.833,320.333 351.167,319.167 351.5,318C 350.461,314.883 349.627,311.716 349,308.5C 346.444,307.781 345.277,306.114 345.5,303.5C 346.833,303.5 348.167,303.5 349.5,303.5C 349.231,305.429 349.731,307.095 351,308.5C 351.744,305.129 351.244,301.963 349.5,299C 350.744,298.544 351.577,299.044 352,300.5C 354.103,298.697 354.936,296.364 354.5,293.5C 355.822,293.67 356.989,293.337 358,292.5C 359.147,295.618 360.48,298.618 362,301.5C 363.166,300.166 363.333,298.5 362.5,296.5C 363.985,293.674 364.985,290.674 365.5,287.5C 364.5,287.5 363.5,287.5 362.5,287.5C 362.108,292.146 360.441,292.979 357.5,290C 358.1,280.937 359.267,271.77 361,262.5C 363.659,260.94 364.826,258.607 364.5,255.5C 365.833,255.5 367.167,255.5 368.5,255.5C 368.662,257.527 368.495,259.527 368,261.5C 367.667,260.5 367.333,259.5 367,258.5C 366.902,260.619 366.069,262.286 364.5,263.5C 363.52,266.086 363.187,268.753 363.5,271.5C 364.5,271.5 365.5,271.5 366.5,271.5C 366.701,274.728 366.367,277.895 365.5,281C 366.022,281.95 366.689,282.784 367.5,283.5C 367.31,289.595 367.31,295.595 367.5,301.5 Z"/></g>
<g><path style="opacity:1" fill="#0296e5" d="M 492.5,271.5 C 490.683,275.148 489.183,279.148 488,283.5C 486.004,296.132 484.171,308.799 482.5,321.5C 481.257,323.964 480.257,326.63 479.5,329.5C 476.436,328.879 473.436,328.045 470.5,327C 471.731,325.817 471.731,324.651 470.5,323.5C 469.813,325.274 468.98,326.941 468,328.5C 467.308,327.975 466.808,327.308 466.5,326.5C 467.08,322.436 467.913,318.436 469,314.5C 469.649,317.937 470.149,318.104 470.5,315C 469.521,311.196 469.355,307.362 470,303.5C 472.099,288.897 475.265,274.564 479.5,260.5C 478.954,258.865 478.62,257.199 478.5,255.5C 480.5,255.5 482.5,255.5 484.5,255.5C 484.833,260.833 485.167,260.833 485.5,255.5C 488.167,255.5 490.833,255.5 493.5,255.5C 493.167,260.833 492.833,266.167 492.5,271.5 Z"/></g>
<g><path style="opacity:1" fill="#0396e4" d="M 762.5,265.5 C 762.158,266.338 761.492,266.672 760.5,266.5C 758.933,267.681 758.099,269.347 758,271.5C 756.745,276.507 756.578,281.507 757.5,286.5C 765.785,287.304 774.118,287.804 782.5,288C 781.684,291.269 780.684,294.436 779.5,297.5C 770.5,297.5 761.5,297.5 752.5,297.5C 752.002,302.152 751.669,306.819 751.5,311.5C 751.5,312.167 751.5,312.833 751.5,313.5C 751.5,314.167 751.5,314.833 751.5,315.5C 750.167,317.167 750.167,318.833 751.5,320.5C 760.018,321.221 768.684,321.888 777.5,322.5C 778.167,322.833 778.833,323.167 779.5,323.5C 777.74,326.212 777.073,329.212 777.5,332.5C 762.167,332.5 746.833,332.5 731.5,332.5C 732.524,323.601 734.357,314.934 737,306.5C 738.27,297.52 739.437,288.52 740.5,279.5C 740.423,275.785 740.756,272.119 741.5,268.5C 742.167,266.833 742.833,265.167 743.5,263.5C 745.396,260.54 746.396,257.207 746.5,253.5C 761.848,253.167 777.181,253.501 792.5,254.5C 791.583,257.758 791.249,261.091 791.5,264.5C 781.082,264.168 771.416,264.501 762.5,265.5 Z"/></g>
<g><path style="opacity:1" fill="#0296e5" d="M 664.5,277.5 C 665.586,277.62 666.253,278.287 666.5,279.5C 666.941,281.145 667.274,282.811 667.5,284.5C 665.572,291.552 664.905,298.552 665.5,305.5C 666.833,308.5 668.167,311.5 669.5,314.5C 668.501,320.493 667.501,326.493 666.5,332.5C 661.527,333.164 656.527,333.497 651.5,333.5C 653.479,324.515 655.146,315.515 656.5,306.5C 657.517,303.972 658.684,303.972 660,306.5C 661.067,305.809 662.234,305.309 663.5,305C 662.863,302.757 662.53,300.424 662.5,298C 664.236,291.138 664.903,284.304 664.5,277.5 Z"/></g>
<g><path style="opacity:1" fill="#023662" d="M 830.5,295.5 C 830.833,295.5 831.167,295.5 831.5,295.5C 831.187,299.042 831.521,302.375 832.5,305.5C 832.108,307.179 831.608,308.846 831,310.5C 830.501,305.511 830.334,300.511 830.5,295.5 Z"/></g>
<g><path style="opacity:1" fill="#1c9bdd" d="M 127.5,303.5 C 125.941,313.855 124.274,324.188 122.5,334.5C 116.5,334.5 110.5,334.5 104.5,334.5C 104.539,330.267 105.205,326.267 106.5,322.5C 106.784,325.777 106.451,328.943 105.5,332C 110.823,332.499 116.156,332.666 121.5,332.5C 122.035,327.157 122.701,321.824 123.5,316.5C 122.012,311.573 121.512,306.573 122,301.5C 123.813,300.391 124.646,301.058 124.5,303.5C 125.5,303.5 126.5,303.5 127.5,303.5 Z"/></g>
<g><path style="opacity:1" fill="#219dd7" d="M 586.5,279.5 C 586.415,283.849 586.082,288.182 585.5,292.5C 581.975,303.251 580.809,314.251 582,325.5C 582.394,328.893 584.227,331.06 587.5,332C 599.495,332.5 611.495,332.667 623.5,332.5C 618.04,333.829 612.207,334.496 606,334.5C 600.167,334.333 594.333,334.167 588.5,334C 581.359,331.907 578.025,327.073 578.5,319.5C 579.813,314.247 580.48,308.914 580.5,303.5C 582.714,295.549 584.714,287.549 586.5,279.5 Z"/></g>
<g><path style="opacity:1" fill="#1b9ed7" d="M 526.5,303.5 C 527.255,310.085 525.922,316.085 522.5,321.5C 522.96,315.186 524.293,309.186 526.5,303.5 Z"/></g>
<g><path style="opacity:1" fill="#1699dd" d="M 857.5,287.5 C 858.528,287.074 859.861,287.074 861.5,287.5C 862.288,292.637 862.955,297.804 863.5,303C 863.536,308.677 862.869,308.844 861.5,303.5C 860.335,312.816 860.168,322.149 861,331.5C 861.414,331.043 861.914,330.709 862.5,330.5C 866.922,332.359 871.588,333.026 876.5,332.5C 876.5,331.167 876.5,329.833 876.5,328.5C 877.675,328.719 878.675,328.386 879.5,327.5C 882.162,322.357 882.996,317.024 882,311.5C 883.333,312.833 884.667,312.833 886,311.5C 886.725,309.051 887.725,306.717 889,304.5C 889.936,301.208 889.436,298.208 887.5,295.5C 888.491,294.335 889.491,293.168 890.5,292C 891.32,287.797 892.32,283.63 893.5,279.5C 893.558,276.953 892.891,274.62 891.5,272.5C 892,272.167 892.5,271.833 893,271.5C 894.274,272.535 895.44,273.702 896.5,275C 895.762,278.616 895.096,282.282 894.5,286C 894.833,286.5 895.167,287 895.5,287.5C 898.099,282.317 900.099,276.984 901.5,271.5C 899.396,271.799 897.396,271.466 895.5,270.5C 899.148,267.755 899.314,264.755 896,261.5C 895.581,265.852 894.914,266.185 894,262.5C 889.505,268.453 886.505,275.12 885,282.5C 884.329,283.252 883.496,283.586 882.5,283.5C 885.599,272.472 889.932,261.972 895.5,252C 900.823,251.501 906.156,251.334 911.5,251.5C 911.657,252.873 911.49,254.207 911,255.5C 899.613,281.607 888.78,307.94 878.5,334.5C 872.167,334.5 865.833,334.5 859.5,334.5C 858.999,318.826 858.333,303.159 857.5,287.5 Z"/></g>
<g><path style="opacity:1" fill="#149add" d="M 366.5,303.5 C 364.962,313.858 363.295,324.191 361.5,334.5C 356.167,334.5 350.833,334.5 345.5,334.5C 344.699,330.103 343.699,325.769 342.5,321.5C 343.404,322.209 343.737,323.209 343.5,324.5C 346.346,323.905 349.346,323.905 352.5,324.5C 352.336,321.813 352.503,319.146 353,316.5C 353.414,316.043 353.914,315.709 354.5,315.5C 355.308,317.423 355.808,319.423 356,321.5C 357.544,318.736 358.711,318.903 359.5,322C 357.775,322.865 356.108,323.531 354.5,324C 355.687,325.019 356.687,326.186 357.5,327.5C 354.518,328.332 351.518,328.499 348.5,328C 346.893,329.049 346.227,330.549 346.5,332.5C 351.167,332.5 355.833,332.5 360.5,332.5C 361.351,322.336 363.351,312.669 366.5,303.5 Z"/></g>
<g><path style="opacity:1" fill="#0395e6" d="M 439.5,319.5 C 438.546,324.406 435.879,328.073 431.5,330.5C 417.263,332.512 402.929,333.012 388.5,332C 389.423,329.959 389.756,327.792 389.5,325.5C 390.117,325.389 390.617,325.056 391,324.5C 393.371,327.373 395.204,327.039 396.5,323.5C 400.167,323.167 403.833,322.833 407.5,322.5C 411.811,322.6 415.978,323.267 420,324.5C 421.714,323.924 422.881,322.757 423.5,321C 422.833,320.667 422.167,320.333 421.5,320C 422.308,318.294 423.641,317.461 425.5,317.5C 425.145,311.659 425.812,305.992 427.5,300.5C 431.068,300.241 432.401,298.241 431.5,294.5C 429.345,294.628 427.345,294.128 425.5,293C 432.261,287.483 437.427,288.649 441,296.5C 439.996,304.066 439.496,311.733 439.5,319.5 Z"/></g>
<g><path style="opacity:1" fill="#032740" d="M 599.5,320.5 C 599.5,320.167 599.5,319.833 599.5,319.5C 608.5,319.5 617.5,319.5 626.5,319.5C 626.802,322.059 626.468,324.393 625.5,326.5C 625.5,324.5 625.5,322.5 625.5,320.5C 616.833,320.5 608.167,320.5 599.5,320.5 Z"/></g>
<g><path style="opacity:1" fill="#002440" d="M 751.5,315.5 C 751.5,316.833 751.5,318.167 751.5,319.5C 761.681,319.173 771.681,319.506 781.5,320.5C 771.5,320.5 761.5,320.5 751.5,320.5C 750.167,318.833 750.167,317.167 751.5,315.5 Z"/></g>
<g><path style="opacity:1" fill="#37adda" d="M 599.5,320.5 C 608.167,320.5 616.833,320.5 625.5,320.5C 625.5,322.5 625.5,324.5 625.5,326.5C 624.976,328.306 624.309,329.972 623.5,331.5C 623.5,328.167 623.5,324.833 623.5,321.5C 615.316,321.826 607.316,321.492 599.5,320.5 Z"/></g>
<g><path style="opacity:1" fill="#0697e5" d="M 700.5,315.5 C 702.789,321.585 704.455,327.919 705.5,334.5C 699.5,334.5 693.5,334.5 687.5,334.5C 686.372,329.527 685.372,324.527 684.5,319.5C 684.492,316.455 684.159,313.455 683.5,310.5C 686.534,310.391 687.534,309.057 686.5,306.5C 681.683,304.596 676.683,303.429 671.5,303C 676.372,302.754 681.205,302.254 686,301.5C 686.772,301.645 687.439,301.978 688,302.5C 692.062,301.426 695.896,300.092 699.5,298.5C 699.5,299.5 699.5,300.5 699.5,301.5C 698.325,301.281 697.325,301.614 696.5,302.5C 697.098,307.173 698.431,311.507 700.5,315.5 Z"/></g>
<g><path style="opacity:1" fill="#1899dd" d="M 492.5,271.5 C 492.833,266.167 493.167,260.833 493.5,255.5C 490.833,255.5 488.167,255.5 485.5,255.5C 485.167,260.833 484.833,260.833 484.5,255.5C 482.5,255.5 480.5,255.5 478.5,255.5C 478.62,257.199 478.954,258.865 479.5,260.5C 475.265,274.564 472.099,288.897 470,303.5C 469.355,307.362 469.521,311.196 470.5,315C 470.149,318.104 469.649,317.937 469,314.5C 467.913,318.436 467.08,322.436 466.5,326.5C 466.808,327.308 467.308,327.975 468,328.5C 468.98,326.941 469.813,325.274 470.5,323.5C 471.731,324.651 471.731,325.817 470.5,327C 473.436,328.045 476.436,328.879 479.5,329.5C 480.257,326.63 481.257,323.964 482.5,321.5C 482.116,325.747 481.449,329.914 480.5,334C 474.509,334.499 468.509,334.666 462.5,334.5C 468.292,306.994 473.292,279.327 477.5,251.5C 483.833,251.5 490.167,251.5 496.5,251.5C 495.249,258.299 493.916,264.966 492.5,271.5 Z"/></g>
<g><path style="opacity:1" fill="#239ed8" d="M 162.5,300.5 C 161.61,311.286 159.943,321.953 157.5,332.5C 162.833,332.5 168.167,332.5 173.5,332.5C 173.978,325.105 174.978,317.772 176.5,310.5C 176.37,308.625 176.037,306.792 175.5,305C 176.424,303.189 177.257,303.355 178,305.5C 181.727,305.041 185.561,305.041 189.5,305.5C 189.5,308.833 189.5,312.167 189.5,315.5C 188.087,312.781 187.42,309.781 187.5,306.5C 184.5,306.5 181.5,306.5 178.5,306.5C 176.733,315.771 175.399,325.104 174.5,334.5C 168.132,334.83 161.798,334.496 155.5,333.5C 157.526,322.312 159.859,311.312 162.5,300.5 Z"/></g>
<g><path style="opacity:1" fill="#1f9ad7" d="M 238.5,303.5 C 236.844,308.818 235.178,314.151 233.5,319.5C 236.144,319.84 238.477,319.173 240.5,317.5C 240.833,317.833 241.167,318.167 241.5,318.5C 240.902,319.795 240.402,321.128 240,322.5C 237.327,320.11 234.494,320.11 231.5,322.5C 229.892,325.382 228.559,328.382 227.5,331.5C 231.833,332.833 236.167,332.833 240.5,331.5C 241.521,330.099 242.521,328.765 243.5,327.5C 243.007,329.806 242.674,332.139 242.5,334.5C 236.463,334.829 230.463,334.496 224.5,333.5C 228.552,325.397 232.052,317.063 235,308.5C 236.03,306.654 237.196,304.987 238.5,303.5 Z"/></g>
<g><path style="opacity:1" fill="#219dd6" d="M 415.5,320.5 C 407.343,321.329 399.01,321.829 390.5,322C 389.663,323.011 389.33,324.178 389.5,325.5C 389.756,327.792 389.423,329.959 388.5,332C 402.929,333.012 417.263,332.512 431.5,330.5C 429.266,332.446 426.599,333.613 423.5,334C 411.171,334.5 398.838,334.667 386.5,334.5C 386.39,329.274 387.39,324.274 389.5,319.5C 398.112,320.471 406.779,320.804 415.5,320.5 Z"/></g>
<g><path style="opacity:1" fill="#269fda" d="M 540.5,319.5 C 539.725,324.484 539.058,329.484 538.5,334.5C 532.132,334.83 525.798,334.496 519.5,333.5C 520.295,330.856 520.962,328.189 521.5,325.5C 522.468,327.607 522.802,329.941 522.5,332.5C 527.5,332.5 532.5,332.5 537.5,332.5C 537.374,327.778 538.374,323.445 540.5,319.5 Z"/></g>
<g><path style="opacity:1" fill="#219fdd" d="M 740.5,279.5 C 739.437,288.52 738.27,297.52 737,306.5C 734.357,314.934 732.524,323.601 731.5,332.5C 746.833,332.5 762.167,332.5 777.5,332.5C 777.073,329.212 777.74,326.212 779.5,323.5C 778.833,323.167 778.167,322.833 777.5,322.5C 768.684,321.888 760.018,321.221 751.5,320.5C 761.5,320.5 771.5,320.5 781.5,320.5C 780.193,325.066 779.526,329.733 779.5,334.5C 762.833,334.5 746.167,334.5 729.5,334.5C 732.429,315.9 736.096,297.567 740.5,279.5 Z"/></g>
<g><path style="opacity:1" fill="#309aca" d="M 268.5,319.5 C 269.323,322.977 269.823,326.644 270,330.5C 270.692,331.025 271.192,331.692 271.5,332.5C 276.792,333.495 282.125,333.828 287.5,333.5C 281.355,334.49 275.022,334.823 268.5,334.5C 268.5,329.5 268.5,324.5 268.5,319.5 Z"/></g>
<g><path style="opacity:1" fill="#041931" d="M 813.5,311.5 C 814.492,318.982 814.825,326.648 814.5,334.5C 821.687,334.825 828.687,334.491 835.5,333.5C 837.561,328.985 839.227,324.319 840.5,319.5C 840.833,319.5 841.167,319.5 841.5,319.5C 840.83,323.851 839.996,328.184 839,332.5C 838.075,333.047 837.242,333.713 836.5,334.5C 828.862,335.497 821.196,335.831 813.5,335.5C 813.5,327.5 813.5,319.5 813.5,311.5 Z"/></g>
<g><path style="opacity:1" fill="#01162d" d="M 575.5,406.5 C 582.325,405.834 589.325,405.5 596.5,405.5C 607.374,405.34 618.04,406.007 628.5,407.5C 610.845,406.717 593.178,406.384 575.5,406.5 Z"/></g>
<g><path style="opacity:1" fill="#209bd4" d="M 575.5,406.5 C 593.178,406.384 610.845,406.717 628.5,407.5C 632.337,407.931 636.003,408.598 639.5,409.5C 623.5,409.167 607.5,408.833 591.5,408.5C 583.826,408.334 576.159,408.5 568.5,409C 564.49,411.173 560.157,412.006 555.5,411.5C 562.082,409.416 568.748,407.749 575.5,406.5 Z"/></g>
<g><path style="opacity:1" fill="#0190dd" d="M 591.5,408.5 C 596.651,409.327 601.984,409.827 607.5,410C 602.833,410.333 598.167,410.667 593.5,411C 593.833,411.333 594.167,411.667 594.5,412C 581.236,414.731 567.903,416.731 554.5,418C 554.957,417.586 555.291,417.086 555.5,416.5C 562.114,415.293 568.781,414.626 575.5,414.5C 575.5,413.5 575.5,412.5 575.5,411.5C 571.205,411.314 567.205,412.314 563.5,414.5C 562.446,414.32 561.446,413.987 560.5,413.5C 553.018,416.04 545.352,416.873 537.5,416C 541.167,415.667 544.833,415.333 548.5,415C 551.084,414.14 553.417,412.973 555.5,411.5C 560.157,412.006 564.49,411.173 568.5,409C 576.159,408.5 583.826,408.334 591.5,408.5 Z"/></g>
<g><path style="opacity:1" fill="#1c99cc" d="M 399.5,430.5 C 403.643,427.036 408.309,424.202 413.5,422C 432.795,413.369 452.462,405.702 472.5,399C 456.808,398.229 441.142,398.396 425.5,399.5C 425.918,398.778 426.584,398.278 427.5,398C 444.167,397.333 460.833,397.333 477.5,398C 451.154,408.006 425.154,418.84 399.5,430.5 Z"/></g>
<g><path style="opacity:1" fill="#04070a" d="M 743.5,529.5 C 714.326,522.663 686.993,511.329 661.5,495.5C 639.64,482.74 618.64,468.74 598.5,453.5C 582.438,440.585 564.105,432.919 543.5,430.5C 538.167,429.833 532.833,429.167 527.5,428.5C 527.5,428.167 527.5,427.833 527.5,427.5C 534.7,425.874 541.7,423.874 548.5,421.5C 584.226,413.354 619.892,413.521 655.5,422C 685.742,431.701 711.242,448.534 732,472.5C 743.149,484.645 753.149,497.645 762,511.5C 763.566,514.866 764.733,518.366 765.5,522C 764.42,526.617 761.42,528.95 756.5,529C 752.179,529.499 747.846,529.666 743.5,529.5 Z"/></g>
<g><path style="opacity:1" fill="#0694dd" d="M 399.5,430.5 C 399.158,431.338 398.492,431.672 397.5,431.5C 390.366,433.399 383.7,436.399 377.5,440.5C 367.469,445.516 357.469,450.516 347.5,455.5C 338.167,459.5 328.833,463.5 319.5,467.5C 315.433,468.114 311.6,469.448 308,471.5C 306.387,470.378 305.22,470.878 304.5,473C 303.167,473.667 301.833,473.667 300.5,473C 305.388,469.237 310.721,466.403 316.5,464.5C 316.5,463.5 316.5,462.5 316.5,461.5C 352.268,440.117 388.601,419.451 425.5,399.5C 441.142,398.396 456.808,398.229 472.5,399C 452.462,405.702 432.795,413.369 413.5,422C 408.309,424.202 403.643,427.036 399.5,430.5 Z"/></g>
<g><path style="opacity:1" fill="#07598a" d="M 527.5,428.5 C 532.833,429.167 538.167,429.833 543.5,430.5C 536.825,430.666 530.158,430.5 523.5,430C 524.563,428.812 525.897,428.312 527.5,428.5 Z"/></g>
<g><path style="opacity:1" fill="#1a9ad5" d="M 527.5,427.5 C 527.5,427.833 527.5,428.167 527.5,428.5C 525.897,428.312 524.563,428.812 523.5,430C 530.158,430.5 536.825,430.666 543.5,430.5C 564.105,432.919 582.438,440.585 598.5,453.5C 596.742,453.123 595.075,452.456 593.5,451.5C 591.786,452.609 591.119,451.942 591.5,449.5C 582.066,443.953 572.066,439.119 561.5,435C 555.973,434.661 550.64,433.495 545.5,431.5C 544.014,431.897 542.514,432.23 541,432.5C 532.857,431.743 524.69,431.243 516.5,431C 520.049,429.345 523.715,428.178 527.5,427.5 Z"/></g>
<g><path style="opacity:1" fill="#229aca" d="M 397.5,431.5 C 393.69,433.907 389.69,436.074 385.5,438C 382.904,439.136 380.237,439.969 377.5,440.5C 383.7,436.399 390.366,433.399 397.5,431.5 Z"/></g>
<g><path style="opacity:1" fill="#0f92d9" d="M 523.5,418.5 C 529.511,418.592 535.511,418.925 541.5,419.5C 544.269,419.529 546.603,420.195 548.5,421.5C 541.7,423.874 534.7,425.874 527.5,427.5C 523.715,428.178 520.049,429.345 516.5,431C 524.69,431.243 532.857,431.743 541,432.5C 542.514,432.23 544.014,431.897 545.5,431.5C 550.64,433.495 555.973,434.661 561.5,435C 572.066,439.119 582.066,443.953 591.5,449.5C 591.119,451.942 591.786,452.609 593.5,451.5C 595.075,452.456 596.742,453.123 598.5,453.5C 618.64,468.74 639.64,482.74 661.5,495.5C 661.511,497.017 662.177,498.184 663.5,499C 667.993,501.079 672.326,503.412 676.5,506C 674.833,506.667 673.167,506.667 671.5,506C 666.694,503.413 661.694,501.747 656.5,501C 657.061,502.676 658.061,504.009 659.5,505C 658.906,505.464 658.239,505.631 657.5,505.5C 642.045,494.551 626.712,483.385 611.5,472C 603.146,466.968 594.813,461.968 586.5,457C 582.973,455.049 579.307,453.715 575.5,453C 585.167,460.667 594.833,468.333 604.5,476C 623.052,492.421 641.718,508.587 660.5,524.5C 658.888,526.298 657.388,528.298 656,530.5C 656.618,525.654 654.785,523.987 650.5,525.5C 649.353,525.182 648.519,524.516 648,523.5C 647.577,524.956 646.744,525.456 645.5,525C 644.167,524.333 644.167,523.667 645.5,523C 644.09,522.632 643.09,521.799 642.5,520.5C 643.397,520.331 644.397,519.998 645.5,519.5C 643.978,517.844 644.311,516.677 646.5,516C 643.673,513.769 641.339,514.102 639.5,517C 640.707,518.3 641.374,519.8 641.5,521.5C 637.062,522.575 635.062,520.908 635.5,516.5C 634.07,516.579 632.736,516.246 631.5,515.5C 630.386,516.723 630.219,518.056 631,519.5C 634.113,520.71 636.613,522.71 638.5,525.5C 639.167,525.167 639.833,524.833 640.5,524.5C 641.752,526.001 642.752,527.668 643.5,529.5C 646.118,529.543 648.785,529.877 651.5,530.5C 652.251,531.376 652.751,532.376 653,533.5C 653.414,533.043 653.914,532.709 654.5,532.5C 655.167,533.833 655.833,535.167 656.5,536.5C 658.639,529.902 660.306,529.902 661.5,536.5C 658.09,536.384 656.756,538.05 657.5,541.5C 659.167,541.5 660.833,541.5 662.5,541.5C 662.417,536.793 663.75,536.293 666.5,540C 665.556,541.477 664.223,542.477 662.5,543C 665.359,543.553 668.192,543.386 671,542.5C 675.128,542.952 675.462,544.285 672,546.5C 671.586,546.043 671.086,545.709 670.5,545.5C 669.571,546.689 669.238,548.022 669.5,549.5C 667.723,549.786 666.056,550.453 664.5,551.5C 663.353,551.182 662.519,550.516 662,549.5C 658.978,550.331 657.478,548.998 657.5,545.5C 655.5,545.5 653.5,545.5 651.5,545.5C 626.367,520.534 601.033,495.701 575.5,471C 565.383,462.886 554.716,455.552 543.5,449C 522.602,440.179 501.269,439.179 479.5,446C 447.316,458.399 415.316,471.399 383.5,485C 373.585,488.793 363.585,492.293 353.5,495.5C 351.922,494.934 350.588,493.934 349.5,492.5C 361.765,488.992 373.098,483.992 383.5,477.5C 389.798,474.173 396.131,470.839 402.5,467.5C 406.758,465.868 411.091,464.535 415.5,463.5C 419.285,462.822 422.951,461.655 426.5,460C 444.418,450.695 463.085,443.362 482.5,438C 481.5,437.667 480.5,437.333 479.5,437C 483.587,434.804 487.921,433.304 492.5,432.5C 498.641,434.696 504.975,435.029 511.5,433.5C 506.208,432.505 500.875,432.172 495.5,432.5C 495.5,431.5 495.5,430.5 495.5,429.5C 504.518,426.321 513.518,423.155 522.5,420C 523.056,419.617 523.389,419.117 523.5,418.5 Z"/></g>
<g><path style="opacity:1" fill="#1897d0" d="M 523.5,418.5 C 523.389,419.117 523.056,419.617 522.5,420C 513.518,423.155 504.518,426.321 495.5,429.5C 495.5,430.5 495.5,431.5 495.5,432.5C 500.875,432.172 506.208,432.505 511.5,433.5C 504.975,435.029 498.641,434.696 492.5,432.5C 487.921,433.304 483.587,434.804 479.5,437C 480.5,437.333 481.5,437.667 482.5,438C 463.085,443.362 444.418,450.695 426.5,460C 422.951,461.655 419.285,462.822 415.5,463.5C 416.749,461.864 418.416,460.697 420.5,460C 442.108,451.194 463.441,441.86 484.5,432C 497.32,427.004 510.32,422.504 523.5,418.5 Z"/></g>
<g><path style="opacity:1" fill="#24c3e2" d="M 719.5,470.5 C 713.275,465.96 707.775,460.627 703,454.5C 702.667,454.833 702.333,455.167 702,455.5C 698.891,451.519 695.058,448.352 690.5,446C 678.936,443.453 667.269,442.619 655.5,443.5C 658.658,444.25 661.325,445.583 663.5,447.5C 653.522,446.468 643.522,446.301 633.5,447C 630.026,447.301 626.692,448.134 623.5,449.5C 622.304,449.154 622.304,448.654 623.5,448C 637.133,441.576 651.466,439.242 666.5,441C 675.998,441.766 685.332,443.433 694.5,446C 702.012,451.851 709.179,458.018 716,464.5C 717.421,466.405 718.588,468.405 719.5,470.5 Z"/></g>
<g><path style="opacity:1" fill="#f1f5f5" d="M 651.5,545.5 C 659.541,552.876 667.874,559.876 676.5,566.5C 675.078,566.291 673.745,565.791 672.5,565C 646.118,545.306 621.118,523.972 597.5,501C 579.201,484.85 559.201,471.183 537.5,460C 514.762,450.751 491.762,450.084 468.5,458C 458.784,461.179 449.118,464.513 439.5,468C 387.285,490.115 334.285,509.948 280.5,527.5C 280.062,527.565 279.728,527.399 279.5,527C 286.96,524.343 294.293,521.509 301.5,518.5C 302.894,517.313 302.727,516.646 301,516.5C 296.554,518.15 292.054,519.483 287.5,520.5C 309.458,511.963 331.458,503.63 353.5,495.5C 363.585,492.293 373.585,488.793 383.5,485C 415.316,471.399 447.316,458.399 479.5,446C 501.269,439.179 522.602,440.179 543.5,449C 554.716,455.552 565.383,462.886 575.5,471C 601.033,495.701 626.367,520.534 651.5,545.5 Z"/></g>
<g><path style="opacity:1" fill="#0a111c" d="M 347.5,455.5 C 343.445,459.528 338.445,462.028 332.5,463C 332.833,463.333 333.167,463.667 333.5,464C 330.675,467.485 327.009,469.152 322.5,469C 315.01,471.943 307.677,475.277 300.5,479C 298.866,479.494 297.199,479.66 295.5,479.5C 303.301,475.015 311.301,471.015 319.5,467.5C 328.833,463.5 338.167,459.5 347.5,455.5 Z"/></g>
<g><path style="opacity:1" fill="#05c2f9" d="M 719.5,470.5 C 719.34,472.199 719.506,473.866 720,475.5C 720.893,474.289 721.726,474.289 722.5,475.5C 723.95,476.85 724.617,478.516 724.5,480.5C 731.004,485.207 735.504,491.541 738,499.5C 739.147,498.542 740.147,498.875 741,500.5C 742.559,502.217 743.392,504.217 743.5,506.5C 727.247,506.458 711.247,504.458 695.5,500.5C 691.147,500.154 687.48,498.487 684.5,495.5C 684.415,494.005 685.081,493.005 686.5,492.5C 696.719,495.847 707.219,497.847 718,498.5C 719.973,498.691 721.473,498.024 722.5,496.5C 716.009,483.693 707.676,472.193 697.5,462C 696.255,461.209 694.922,460.709 693.5,460.5C 684.709,453.463 674.709,449.13 663.5,447.5C 661.325,445.583 658.658,444.25 655.5,443.5C 667.269,442.619 678.936,443.453 690.5,446C 695.058,448.352 698.891,451.519 702,455.5C 702.333,455.167 702.667,454.833 703,454.5C 707.775,460.627 713.275,465.96 719.5,470.5 Z"/></g>
<g><path style="opacity:1" fill="#2094ca" d="M 316.5,461.5 C 316.5,462.5 316.5,463.5 316.5,464.5C 310.721,466.403 305.388,469.237 300.5,473C 301.833,473.667 303.167,473.667 304.5,473C 305.22,470.878 306.387,470.378 308,471.5C 311.6,469.448 315.433,468.114 319.5,467.5C 311.301,471.015 303.301,475.015 295.5,479.5C 279.106,486.133 263.106,493.633 247.5,502C 246.5,502.667 245.5,502.667 244.5,502C 268.361,488.237 292.361,474.737 316.5,461.5 Z"/></g>
<g><path style="opacity:1" fill="#919698" d="M 676.5,566.5 C 677.85,567.65 677.684,568.317 676,568.5C 674.607,567.385 673.107,566.885 671.5,567C 672.451,567.718 672.617,568.551 672,569.5C 667.946,567.72 664.113,565.886 660.5,564C 661.944,565.763 662.944,567.763 663.5,570C 665.955,571.631 668.455,571.797 671,570.5C 671.309,571.766 671.809,572.933 672.5,574C 669.657,573.424 666.823,573.591 664,574.5C 661.898,572.23 659.398,570.563 656.5,569.5C 655.719,568.271 655.219,566.938 655,565.5C 654.667,566.167 654.333,566.833 654,567.5C 652.839,564.349 650.672,562.849 647.5,563C 651.473,566.973 655.473,570.973 659.5,575C 659.272,575.399 658.938,575.565 658.5,575.5C 619.126,539.285 578.126,505.118 535.5,473C 513.139,460.143 489.806,458.143 465.5,467C 410.518,485.821 355.518,504.655 300.5,523.5C 298.302,523.12 296.635,523.787 295.5,525.5C 276.838,531.832 258.172,538.166 239.5,544.5C 239.782,543.222 240.449,542.222 241.5,541.5C 254.698,537.213 267.698,532.547 280.5,527.5C 334.285,509.948 387.285,490.115 439.5,468C 449.118,464.513 458.784,461.179 468.5,458C 491.762,450.084 514.762,450.751 537.5,460C 559.201,471.183 579.201,484.85 597.5,501C 621.118,523.972 646.118,545.306 672.5,565C 673.745,565.791 675.078,566.291 676.5,566.5 Z"/></g>
<g><path style="opacity:1" fill="#3094b6" d="M 365.5,468.5 C 366.738,468.81 366.738,469.31 365.5,470C 354.021,474.907 342.688,480.074 331.5,485.5C 331.5,484.833 331.5,484.167 331.5,483.5C 342.549,478.139 353.883,473.139 365.5,468.5 Z"/></g>
<g><path style="opacity:1" fill="#06090e" d="M 402.5,467.5 C 396.131,470.839 389.798,474.173 383.5,477.5C 347.617,491.448 312.283,506.448 277.5,522.5C 263.33,527.323 249.33,532.657 235.5,538.5C 221.8,543.843 208.133,549.176 194.5,554.5C 194.441,552.278 193.275,551.278 191,551.5C 186.079,553.738 180.913,555.071 175.5,555.5C 175.33,554.178 175.663,553.011 176.5,552C 180.779,550.527 184.779,548.527 188.5,546C 190.473,545.505 192.473,545.338 194.5,545.5C 190.925,547.287 187.259,549.121 183.5,551C 182.304,551.654 182.304,552.154 183.5,552.5C 190.924,549.117 198.257,545.784 205.5,542.5C 248.329,525.081 290.329,506.081 331.5,485.5C 342.688,480.074 354.021,474.907 365.5,470C 366.738,469.31 366.738,468.81 365.5,468.5C 367.119,466.762 369.119,466.262 371.5,467C 368.894,467.45 367.561,468.95 367.5,471.5C 366.448,471.351 365.448,471.517 364.5,472C 362.909,474.133 360.909,475.799 358.5,477C 362.502,477.985 366.336,479.485 370,481.5C 370.883,477.62 373.383,475.453 377.5,475C 376.234,474.691 375.067,474.191 374,473.5C 373,474.5 372,475.5 371,476.5C 369.989,475.663 368.822,475.33 367.5,475.5C 367.5,474.5 367.5,473.5 367.5,472.5C 370.573,471.801 373.573,470.801 376.5,469.5C 378.021,469.88 379.687,470.046 381.5,470C 382.646,470.645 383.646,471.478 384.5,472.5C 390.202,469.597 396.202,467.931 402.5,467.5 Z"/></g>
<g><path style="opacity:1" fill="#1e87c2" d="M 383.5,477.5 C 373.098,483.992 361.765,488.992 349.5,492.5C 350.588,493.934 351.922,494.934 353.5,495.5C 331.458,503.63 309.458,511.963 287.5,520.5C 284.211,521.374 280.877,522.041 277.5,522.5C 312.283,506.448 347.617,491.448 383.5,477.5 Z"/></g>
<g><path style="opacity:1" fill="#21cae6" d="M 693.5,460.5 C 694.922,460.709 696.255,461.209 697.5,462C 707.676,472.193 716.009,483.693 722.5,496.5C 721.473,498.024 719.973,498.691 718,498.5C 707.219,497.847 696.719,495.847 686.5,492.5C 685.081,493.005 684.415,494.005 684.5,495.5C 678.459,492.305 672.792,488.472 667.5,484C 661.167,478.333 654.833,472.667 648.5,467C 648.833,466.833 649.167,466.667 649.5,466.5C 660.976,476.411 673.643,484.578 687.5,491C 697.888,494.454 708.555,496.287 719.5,496.5C 712.793,483.086 704.126,471.086 693.5,460.5 Z"/></g>
<g><path style="opacity:1" fill="#f3f8f7" d="M 657.5,505.5 C 660.642,508.469 663.975,511.302 667.5,514C 668.745,514.791 670.078,515.291 671.5,515.5C 685.219,527.205 699.885,537.705 715.5,547C 733.031,557.8 752.031,562.466 772.5,561C 780.442,559.893 784.775,555.393 785.5,547.5C 784.443,540.946 782.943,534.612 781,528.5C 789.643,540.095 793.643,553.095 793,567.5C 790.436,574.04 785.603,577.54 778.5,578C 763.748,579.789 749.414,578.123 735.5,573C 707.552,561.361 682.552,545.195 660.5,524.5C 641.718,508.587 623.052,492.421 604.5,476C 594.833,468.333 585.167,460.667 575.5,453C 579.307,453.715 582.973,455.049 586.5,457C 594.813,461.968 603.146,466.968 611.5,472C 626.712,483.385 642.045,494.551 657.5,505.5 Z"/></g>
<g><path style="opacity:1" fill="#20c9e5" d="M 719.5,470.5 C 729.894,481.574 739.227,493.574 747.5,506.5C 733.024,508.181 718.691,507.348 704.5,504C 701.135,503.495 698.135,502.328 695.5,500.5C 711.247,504.458 727.247,506.458 743.5,506.5C 743.392,504.217 742.559,502.217 741,500.5C 740.147,498.875 739.147,498.542 738,499.5C 735.504,491.541 731.004,485.207 724.5,480.5C 724.617,478.516 723.95,476.85 722.5,475.5C 721.726,474.289 720.893,474.289 720,475.5C 719.506,473.866 719.34,472.199 719.5,470.5 Z"/></g>
<g><path style="opacity:1" fill="#040608" d="M 658.5,575.5 C 658.44,576.043 658.107,576.376 657.5,576.5C 623.24,561.914 587.906,550.414 551.5,542C 527.627,537.283 503.627,536.45 479.5,539.5C 426.984,547.383 374.317,554.05 321.5,559.5C 312.851,560.387 304.185,561.054 295.5,561.5C 295.107,554.381 295.774,547.381 297.5,540.5C 321.098,535.464 344.431,529.797 367.5,523.5C 400.068,516.453 432.735,509.786 465.5,503.5C 479.837,502.212 494.17,502.212 508.5,503.5C 511.568,503.547 514.568,504.047 517.5,505C 538.354,512.593 558.354,522.093 577.5,533.5C 584.158,537.653 590.825,541.486 597.5,545C 591.623,540.283 585.623,535.783 579.5,531.5C 575.135,527.811 570.469,524.478 565.5,521.5C 558.72,515.726 551.387,510.726 543.5,506.5C 531.123,498.374 517.79,492.374 503.5,488.5C 502.048,487.698 500.382,487.198 498.5,487C 492.667,486.833 486.833,486.667 481,486.5C 474.793,486.504 468.96,487.171 463.5,488.5C 427.92,497.229 392.587,506.895 357.5,517.5C 337.961,523.091 318.294,528.424 298.5,533.5C 298.788,530.061 299.454,526.728 300.5,523.5C 355.518,504.655 410.518,485.821 465.5,467C 489.806,458.143 513.139,460.143 535.5,473C 578.126,505.118 619.126,539.285 658.5,575.5 Z"/></g>
<g><path style="opacity:1" fill="#0b8fd4" d="M 503.5,488.5 C 517.79,492.374 531.123,498.374 543.5,506.5C 543.414,507.496 543.748,508.329 544.5,509C 551.425,513.454 558.425,517.621 565.5,521.5C 570.469,524.478 575.135,527.811 579.5,531.5C 578.5,531.833 577.833,532.5 577.5,533.5C 558.354,522.093 538.354,512.593 517.5,505C 514.568,504.047 511.568,503.547 508.5,503.5C 494.173,499.541 479.84,499.541 465.5,503.5C 432.735,509.786 400.068,516.453 367.5,523.5C 363.51,524.19 359.51,524.357 355.5,524C 356.997,522.129 358.997,521.129 361.5,521C 359.973,519.968 358.64,518.801 357.5,517.5C 392.587,506.895 427.92,497.229 463.5,488.5C 476.829,487.218 490.163,487.218 503.5,488.5 Z"/></g>
<g><path style="opacity:1" fill="#051b33" d="M 508.5,503.5 C 494.17,502.212 479.837,502.212 465.5,503.5C 479.84,499.541 494.173,499.541 508.5,503.5 Z"/></g>
<g><path style="opacity:1" fill="#051d31" d="M 503.5,488.5 C 490.163,487.218 476.829,487.218 463.5,488.5C 468.96,487.171 474.793,486.504 481,486.5C 486.833,486.667 492.667,486.833 498.5,487C 500.382,487.198 502.048,487.698 503.5,488.5 Z"/></g>
<g><path style="opacity:1" fill="#2098cc" d="M 543.5,506.5 C 551.387,510.726 558.72,515.726 565.5,521.5C 558.425,517.621 551.425,513.454 544.5,509C 543.748,508.329 543.414,507.496 543.5,506.5 Z"/></g>
<g><path style="opacity:1" fill="#1790cd" d="M 331.5,483.5 C 331.5,484.167 331.5,484.833 331.5,485.5C 290.329,506.081 248.329,525.081 205.5,542.5C 205.158,541.662 204.492,541.328 203.5,541.5C 245.173,519.79 287.839,500.456 331.5,483.5 Z"/></g>
<g><path style="opacity:1" fill="#139bdb" d="M 661.5,495.5 C 686.993,511.329 714.326,522.663 743.5,529.5C 735.157,528.499 726.824,527.332 718.5,526C 719.634,524.984 719.301,524.317 717.5,524C 714.471,523.268 711.471,522.435 708.5,521.5C 705.525,522.139 702.525,522.639 699.5,523C 697.662,525.303 695.328,525.969 692.5,525C 695.113,523.959 697.446,522.459 699.5,520.5C 700.711,519.28 700.711,518.113 699.5,517C 695.731,515.403 692.064,513.57 688.5,511.5C 685.972,512.517 685.972,513.684 688.5,515C 688,515.5 687.5,516 687,516.5C 684.264,511.495 680.931,511.162 677,515.5C 674.625,515.182 673.458,513.849 673.5,511.5C 674.833,511.5 676.167,511.5 677.5,511.5C 677.539,509.641 676.706,508.308 675,507.5C 673.823,509.176 672.323,510.509 670.5,511.5C 668.735,508.567 666.235,506.567 663,505.5C 662.5,505.833 662,506.167 661.5,506.5C 664.963,509.53 668.296,512.53 671.5,515.5C 670.078,515.291 668.745,514.791 667.5,514C 663.975,511.302 660.642,508.469 657.5,505.5C 658.239,505.631 658.906,505.464 659.5,505C 658.061,504.009 657.061,502.676 656.5,501C 661.694,501.747 666.694,503.413 671.5,506C 673.167,506.667 674.833,506.667 676.5,506C 672.326,503.412 667.993,501.079 663.5,499C 662.177,498.184 661.511,497.017 661.5,495.5 Z"/></g>
<g><path style="opacity:1" fill="#2399be" d="M 579.5,531.5 C 585.623,535.783 591.623,540.283 597.5,545C 590.825,541.486 584.158,537.653 577.5,533.5C 577.833,532.5 578.5,531.833 579.5,531.5 Z"/></g>
<g><path style="opacity:1" fill="#c6cccd" d="M 280.5,527.5 C 267.698,532.547 254.698,537.213 241.5,541.5C 240.448,541.649 239.448,541.483 238.5,541C 240.246,540.529 241.913,539.862 243.5,539C 240.83,538.457 238.33,538.957 236,540.5C 234.316,540.317 234.15,539.65 235.5,538.5C 249.33,532.657 263.33,527.323 277.5,522.5C 280.877,522.041 284.211,521.374 287.5,520.5C 292.054,519.483 296.554,518.15 301,516.5C 302.727,516.646 302.894,517.313 301.5,518.5C 294.293,521.509 286.96,524.343 279.5,527C 279.728,527.399 280.062,527.565 280.5,527.5 Z"/></g>
<g><path style="opacity:1" fill="#198dca" d="M 357.5,517.5 C 358.64,518.801 359.973,519.968 361.5,521C 358.997,521.129 356.997,522.129 355.5,524C 359.51,524.357 363.51,524.19 367.5,523.5C 344.431,529.797 321.098,535.464 297.5,540.5C 295.774,547.381 295.107,554.381 295.5,561.5C 295.5,565.833 295.5,570.167 295.5,574.5C 295.5,575.167 295.5,575.833 295.5,576.5C 295.66,578.199 295.494,579.866 295,581.5C 294.617,580.944 294.117,580.611 293.5,580.5C 293.5,579.167 293.5,577.833 293.5,576.5C 293.672,575.508 293.338,574.842 292.5,574.5C 292.605,570.452 292.272,566.452 291.5,562.5C 291.391,555.804 291.724,549.137 292.5,542.5C 273.479,546.037 254.479,549.704 235.5,553.5C 234.833,558.167 234.167,562.833 233.5,567.5C 233.167,567.5 232.833,567.5 232.5,567.5C 232.5,563.5 232.5,559.5 232.5,555.5C 228.476,556.038 224.476,556.705 220.5,557.5C 220.158,556.662 219.492,556.328 218.5,556.5C 222.963,554.791 227.629,553.291 232.5,552C 234.291,550.21 234.625,548.377 233.5,546.5C 234.591,543.808 236.257,543.142 238.5,544.5C 237.262,546.214 236.595,548.214 236.5,550.5C 255.812,545.505 275.146,540.505 294.5,535.5C 294.467,532.164 295.134,528.997 296.5,526C 296.272,525.601 295.938,525.435 295.5,525.5C 296.635,523.787 298.302,523.12 300.5,523.5C 299.454,526.728 298.788,530.061 298.5,533.5C 318.294,528.424 337.961,523.091 357.5,517.5 Z"/></g>
<g><path style="opacity:1" fill="#0385ce" d="M 338.5,523.5 C 343.661,523.471 348.661,524.305 353.5,526C 339.907,528.785 326.407,531.952 313,535.5C 311.681,534.681 310.515,533.681 309.5,532.5C 319.582,530.447 329.249,527.447 338.5,523.5 Z"/></g>
<g><path style="opacity:1" fill="#08090d" d="M 295.5,525.5 C 295.938,525.435 296.272,525.601 296.5,526C 295.134,528.997 294.467,532.164 294.5,535.5C 275.146,540.505 255.812,545.505 236.5,550.5C 236.595,548.214 237.262,546.214 238.5,544.5C 238.833,544.5 239.167,544.5 239.5,544.5C 258.172,538.166 276.838,531.832 295.5,525.5 Z"/></g>
<g><path style="opacity:1" fill="#328396" d="M 203.5,541.5 C 204.492,541.328 205.158,541.662 205.5,542.5C 198.257,545.784 190.924,549.117 183.5,552.5C 182.304,552.154 182.304,551.654 183.5,551C 187.259,549.121 190.925,547.287 194.5,545.5C 197.622,544.439 200.622,543.105 203.5,541.5 Z"/></g>
<g><path style="opacity:1" fill="#f4f5f4" d="M 527.5,547.5 C 566.382,552.118 603.715,562.618 639.5,579C 663.466,587.047 687.466,594.547 711.5,601.5C 695.346,599.169 679.346,596.002 663.5,592C 632.356,582.768 601.023,574.101 569.5,566C 563.581,564.519 557.581,563.686 551.5,563.5C 546.358,562.353 541.025,561.52 535.5,561C 462.78,559.935 390.113,561.435 317.5,565.5C 315.5,565.333 313.5,565.167 311.5,565C 325.009,563.723 338.342,562.223 351.5,560.5C 396.778,555.841 442.112,551.674 487.5,548C 500.829,547.5 514.163,547.333 527.5,547.5 Z"/></g>
<g><path style="opacity:1" fill="#abadab" d="M 235.5,538.5 C 234.15,539.65 234.316,540.317 236,540.5C 238.33,538.957 240.83,538.457 243.5,539C 241.913,539.862 240.246,540.529 238.5,541C 239.448,541.483 240.448,541.649 241.5,541.5C 240.449,542.222 239.782,543.222 239.5,544.5C 239.167,544.5 238.833,544.5 238.5,544.5C 236.257,543.142 234.591,543.808 233.5,546.5C 210.822,553.508 188.155,560.508 165.5,567.5C 174.984,562.928 184.651,558.594 194.5,554.5C 208.133,549.176 221.8,543.843 235.5,538.5 Z"/></g>
<g><path style="opacity:1" fill="#040608" d="M 291.5,562.5 C 272.206,564.563 252.873,566.229 233.5,567.5C 234.167,562.833 234.833,558.167 235.5,553.5C 254.479,549.704 273.479,546.037 292.5,542.5C 291.724,549.137 291.391,555.804 291.5,562.5 Z"/></g>
<g><path style="opacity:1" fill="#7a7f80" d="M 479.5,539.5 C 492.656,539.634 505.989,539.801 519.5,540C 513.629,540.231 507.796,540.731 502,541.5C 498.779,540.208 495.613,540.374 492.5,542C 496.167,542.333 499.833,542.667 503.5,543C 502.833,543.333 502.167,543.667 501.5,544C 495.5,544.333 489.5,544.667 483.5,545C 483.833,545.333 484.167,545.667 484.5,546C 499.006,546.169 513.339,546.669 527.5,547.5C 514.163,547.333 500.829,547.5 487.5,548C 442.112,551.674 396.778,555.841 351.5,560.5C 341.329,559.604 331.329,559.27 321.5,559.5C 374.317,554.05 426.984,547.383 479.5,539.5 Z"/></g>
<g><path style="opacity:1" fill="#101216" d="M 233.5,546.5 C 234.625,548.377 234.291,550.21 232.5,552C 227.629,553.291 222.963,554.791 218.5,556.5C 207.187,558.743 196.187,561.743 185.5,565.5C 181.267,567.355 176.767,568.688 172,569.5C 168.638,568.422 165.305,568.422 162,569.5C 161.5,569.333 161,569.167 160.5,569C 162.025,567.991 163.692,567.491 165.5,567.5C 188.155,560.508 210.822,553.508 233.5,546.5 Z"/></g>
<g><path style="opacity:1" fill="#2e97c3" d="M 218.5,556.5 C 219.492,556.328 220.158,556.662 220.5,557.5C 209.016,560.93 197.349,563.597 185.5,565.5C 196.187,561.743 207.187,558.743 218.5,556.5 Z"/></g>
<g><path style="opacity:1" fill="#73777a" d="M 321.5,559.5 C 331.329,559.27 341.329,559.604 351.5,560.5C 338.342,562.223 325.009,563.723 311.5,565C 313.5,565.167 315.5,565.333 317.5,565.5C 390.113,561.435 462.78,559.935 535.5,561C 541.025,561.52 546.358,562.353 551.5,563.5C 514.165,562.817 476.832,562.484 439.5,562.5C 414.485,562.896 389.485,563.73 364.5,565C 369.511,565.585 374.511,566.251 379.5,567C 378.167,567.333 376.833,567.667 375.5,568C 386.167,568.667 386.167,569.333 375.5,570C 378.167,570.333 380.833,570.667 383.5,571C 379.312,571.176 375.312,571.676 371.5,572.5C 346.994,572.169 322.661,572.502 298.5,573.5C 297.391,573.557 296.391,573.89 295.5,574.5C 295.5,570.167 295.5,565.833 295.5,561.5C 304.185,561.054 312.851,560.387 321.5,559.5 Z"/></g>
<g><path style="opacity:1" fill="#0c96de" d="M 591.5,408.5 C 607.5,408.833 623.5,409.167 639.5,409.5C 671.199,413.683 698.865,426.517 722.5,448C 753.406,479.649 779.573,514.815 801,553.5C 804.464,560.734 807.631,568.067 810.5,575.5C 809.559,580.14 807.726,584.473 805,588.5C 801.839,591.219 798.339,593.385 794.5,595C 780.363,599.295 766.029,600.462 751.5,598.5C 751.5,597.5 751.5,596.5 751.5,595.5C 749.658,595.723 747.825,596.057 746,596.5C 739.534,594.873 733.034,593.373 726.5,592C 724.503,589.508 723.503,586.675 723.5,583.5C 721.425,583.302 719.425,583.135 717.5,583C 719.037,584.11 719.703,585.61 719.5,587.5C 713.844,587.165 708.511,585.831 703.5,583.5C 698.736,579.785 693.403,577.118 687.5,575.5C 687.5,574.5 687.5,573.5 687.5,572.5C 683.86,570.545 680.194,568.545 676.5,566.5C 667.874,559.876 659.541,552.876 651.5,545.5C 653.5,545.5 655.5,545.5 657.5,545.5C 657.478,548.998 658.978,550.331 662,549.5C 662.519,550.516 663.353,551.182 664.5,551.5C 666.056,550.453 667.723,549.786 669.5,549.5C 669.238,548.022 669.571,546.689 670.5,545.5C 671.086,545.709 671.586,546.043 672,546.5C 675.462,544.285 675.128,542.952 671,542.5C 668.192,543.386 665.359,543.553 662.5,543C 664.223,542.477 665.556,541.477 666.5,540C 663.75,536.293 662.417,536.793 662.5,541.5C 660.833,541.5 659.167,541.5 657.5,541.5C 656.756,538.05 658.09,536.384 661.5,536.5C 660.306,529.902 658.639,529.902 656.5,536.5C 655.833,535.167 655.167,533.833 654.5,532.5C 653.914,532.709 653.414,533.043 653,533.5C 652.751,532.376 652.251,531.376 651.5,530.5C 648.785,529.877 646.118,529.543 643.5,529.5C 642.752,527.668 641.752,526.001 640.5,524.5C 639.833,524.833 639.167,525.167 638.5,525.5C 636.613,522.71 634.113,520.71 631,519.5C 630.219,518.056 630.386,516.723 631.5,515.5C 632.736,516.246 634.07,516.579 635.5,516.5C 635.062,520.908 637.062,522.575 641.5,521.5C 641.374,519.8 640.707,518.3 639.5,517C 641.339,514.102 643.673,513.769 646.5,516C 644.311,516.677 643.978,517.844 645.5,519.5C 644.397,519.998 643.397,520.331 642.5,520.5C 643.09,521.799 644.09,522.632 645.5,523C 644.167,523.667 644.167,524.333 645.5,525C 646.744,525.456 647.577,524.956 648,523.5C 648.519,524.516 649.353,525.182 650.5,525.5C 654.785,523.987 656.618,525.654 656,530.5C 657.388,528.298 658.888,526.298 660.5,524.5C 682.552,545.195 707.552,561.361 735.5,573C 749.414,578.123 763.748,579.789 778.5,578C 785.603,577.54 790.436,574.04 793,567.5C 793.643,553.095 789.643,540.095 781,528.5C 782.943,534.612 784.443,540.946 785.5,547.5C 784.775,555.393 780.442,559.893 772.5,561C 752.031,562.466 733.031,557.8 715.5,547C 699.885,537.705 685.219,527.205 671.5,515.5C 668.296,512.53 664.963,509.53 661.5,506.5C 662,506.167 662.5,505.833 663,505.5C 666.235,506.567 668.735,508.567 670.5,511.5C 672.323,510.509 673.823,509.176 675,507.5C 676.706,508.308 677.539,509.641 677.5,511.5C 676.167,511.5 674.833,511.5 673.5,511.5C 673.458,513.849 674.625,515.182 677,515.5C 680.931,511.162 684.264,511.495 687,516.5C 687.5,516 688,515.5 688.5,515C 685.972,513.684 685.972,512.517 688.5,511.5C 692.064,513.57 695.731,515.403 699.5,517C 700.711,518.113 700.711,519.28 699.5,520.5C 697.446,522.459 695.113,523.959 692.5,525C 695.328,525.969 697.662,525.303 699.5,523C 702.525,522.639 705.525,522.139 708.5,521.5C 711.471,522.435 714.471,523.268 717.5,524C 719.301,524.317 719.634,524.984 718.5,526C 726.824,527.332 735.157,528.499 743.5,529.5C 747.846,529.666 752.179,529.499 756.5,529C 761.42,528.95 764.42,526.617 765.5,522C 764.733,518.366 763.566,514.866 762,511.5C 753.149,497.645 743.149,484.645 732,472.5C 711.242,448.534 685.742,431.701 655.5,422C 619.892,413.521 584.226,413.354 548.5,421.5C 546.603,420.195 544.269,419.529 541.5,419.5C 535.511,418.925 529.511,418.592 523.5,418.5C 533.849,415.25 544.516,412.916 555.5,411.5C 553.417,412.973 551.084,414.14 548.5,415C 544.833,415.333 541.167,415.667 537.5,416C 545.352,416.873 553.018,416.04 560.5,413.5C 561.446,413.987 562.446,414.32 563.5,414.5C 567.205,412.314 571.205,411.314 575.5,411.5C 575.5,412.5 575.5,413.5 575.5,414.5C 568.781,414.626 562.114,415.293 555.5,416.5C 555.291,417.086 554.957,417.586 554.5,418C 567.903,416.731 581.236,414.731 594.5,412C 594.167,411.667 593.833,411.333 593.5,411C 598.167,410.667 602.833,410.333 607.5,410C 601.984,409.827 596.651,409.327 591.5,408.5 Z"/></g>
<g><path style="opacity:1" fill="#585c5e" d="M 298.5,573.5 C 322.661,572.502 346.994,572.169 371.5,572.5C 394.212,572.193 411.546,572.86 423.5,574.5C 381.838,573.729 340.171,573.396 298.5,573.5 Z"/></g>
<g><path style="opacity:1" fill="#808588" d="M 551.5,563.5 C 557.581,563.686 563.581,564.519 569.5,566C 601.023,574.101 632.356,582.768 663.5,592C 679.346,596.002 695.346,599.169 711.5,601.5C 715.101,602.264 718.767,602.597 722.5,602.5C 720.349,603.82 718.349,605.32 716.5,607C 713.852,607.099 711.352,607.265 709,607.5C 707.238,607.056 707.405,606.556 709.5,606C 705.453,604.852 703.453,606.352 703.5,610.5C 706.167,610.5 708.833,610.5 711.5,610.5C 711.5,612.167 711.5,613.833 711.5,615.5C 724.833,618.167 738.167,620.833 751.5,623.5C 751.5,622.5 751.5,621.5 751.5,620.5C 756.833,620.5 762.167,620.5 767.5,620.5C 767.5,621.5 767.5,622.5 767.5,623.5C 766.127,623.343 764.793,623.51 763.5,624C 767.5,624.833 771.5,625.667 775.5,626.5C 771.455,627.146 767.455,627.48 763.5,627.5C 773.149,629.251 782.815,629.918 792.5,629.5C 783.146,630.995 773.479,631.995 763.5,632.5C 744.488,631.614 725.488,630.448 706.5,629C 649.5,623.756 592.5,618.59 535.5,613.5C 539.647,612.675 543.981,612.175 548.5,612C 544.082,611.792 539.749,611.126 535.5,610C 538.168,609.433 540.834,608.933 543.5,608.5C 543.5,607.167 543.5,605.833 543.5,604.5C 535.472,604.831 527.472,604.498 519.5,603.5C 509.002,600.854 498.335,599.521 487.5,599.5C 487.5,597.833 487.5,596.167 487.5,594.5C 476.815,593.998 466.149,593.165 455.5,592C 471.234,587.901 487.234,586.067 503.5,586.5C 503.5,585.5 503.5,584.5 503.5,583.5C 490.151,583.454 476.818,582.954 463.5,582C 479.669,582.128 495.669,581.962 511.5,581.5C 542.815,584.441 573.815,589.441 604.5,596.5C 605.5,596.333 606.5,596.167 607.5,596C 584.61,590.489 561.61,585.489 538.5,581C 526.873,579.537 515.206,578.537 503.5,578C 476.659,577.163 449.993,575.997 423.5,574.5C 411.546,572.86 394.212,572.193 371.5,572.5C 375.312,571.676 379.312,571.176 383.5,571C 380.833,570.667 378.167,570.333 375.5,570C 386.167,569.333 386.167,568.667 375.5,568C 376.833,567.667 378.167,567.333 379.5,567C 374.511,566.251 369.511,565.585 364.5,565C 389.485,563.73 414.485,562.896 439.5,562.5C 476.832,562.484 514.165,562.817 551.5,563.5 Z"/></g>
<g><path style="opacity:1" fill="#e0e2e5" d="M 292.5,574.5 C 293.338,574.842 293.672,575.508 293.5,576.5C 278.17,577.197 262.836,577.364 247.5,577C 262.451,575.295 277.451,574.461 292.5,574.5 Z"/></g>
<g><path style="opacity:1" fill="#f2f4f5" d="M 298.5,573.5 C 340.171,573.396 381.838,573.729 423.5,574.5C 449.993,575.997 476.659,577.163 503.5,578C 515.206,578.537 526.873,579.537 538.5,581C 561.61,585.489 584.61,590.489 607.5,596C 606.5,596.167 605.5,596.333 604.5,596.5C 573.815,589.441 542.815,584.441 511.5,581.5C 495.5,580.833 479.5,580.167 463.5,579.5C 407.847,577.845 352.181,576.845 296.5,576.5C 296.167,576.5 295.833,576.5 295.5,576.5C 295.5,575.833 295.5,575.167 295.5,574.5C 296.391,573.89 297.391,573.557 298.5,573.5 Z"/></g>
<g><path style="opacity:1" fill="#797d80" d="M 463.5,579.5 C 479.5,580.167 495.5,580.833 511.5,581.5C 495.669,581.962 479.669,582.128 463.5,582C 476.818,582.954 490.151,583.454 503.5,583.5C 503.5,584.5 503.5,585.5 503.5,586.5C 487.234,586.067 471.234,587.901 455.5,592C 466.149,593.165 476.815,593.998 487.5,594.5C 487.5,596.167 487.5,597.833 487.5,599.5C 498.335,599.521 509.002,600.854 519.5,603.5C 527.472,604.498 535.472,604.831 543.5,604.5C 543.5,605.833 543.5,607.167 543.5,608.5C 540.834,608.933 538.168,609.433 535.5,610C 539.749,611.126 544.082,611.792 548.5,612C 543.981,612.175 539.647,612.675 535.5,613.5C 461.929,606.095 388.262,599.762 314.5,594.5C 318.647,593.675 322.981,593.175 327.5,593C 323.914,591.892 320.247,591.392 316.5,591.5C 316.5,588.5 316.5,585.5 316.5,582.5C 320.182,582.665 323.848,582.499 327.5,582C 324.833,581.667 322.167,581.333 319.5,581C 340.833,580.333 340.833,579.667 319.5,579C 360.843,578.458 402.177,578.958 443.5,580.5C 450.342,580.5 457.009,580.166 463.5,579.5 Z"/></g>
<g><path style="opacity:1" fill="#696c6e" d="M 291.5,562.5 C 292.272,566.452 292.605,570.452 292.5,574.5C 277.451,574.461 262.451,575.295 247.5,577C 262.836,577.364 278.17,577.197 293.5,576.5C 293.5,577.833 293.5,579.167 293.5,580.5C 294.114,584.135 294.448,587.802 294.5,591.5C 295.5,591.5 296.5,591.5 297.5,591.5C 297.587,586.463 297.254,581.463 296.5,576.5C 352.181,576.845 407.847,577.845 463.5,579.5C 457.009,580.166 450.342,580.5 443.5,580.5C 402.177,578.958 360.843,578.458 319.5,579C 340.833,579.667 340.833,580.333 319.5,581C 322.167,581.333 324.833,581.667 327.5,582C 323.848,582.499 320.182,582.665 316.5,582.5C 316.5,585.5 316.5,588.5 316.5,591.5C 320.247,591.392 323.914,591.892 327.5,593C 322.981,593.175 318.647,593.675 314.5,594.5C 268.672,590.482 223.006,585.149 177.5,578.5C 194.094,576.837 212.094,576.004 231.5,576C 212.849,574.934 194.183,574.267 175.5,574C 194.645,571.781 213.645,569.614 232.5,567.5C 232.833,567.5 233.167,567.5 233.5,567.5C 252.873,566.229 272.206,564.563 291.5,562.5 Z"/></g>
<g><path style="opacity:1" fill="#437692" d="M 295.5,576.5 C 295.833,576.5 296.167,576.5 296.5,576.5C 297.254,581.463 297.587,586.463 297.5,591.5C 296.5,591.5 295.5,591.5 294.5,591.5C 294.448,587.802 294.114,584.135 293.5,580.5C 294.117,580.611 294.617,580.944 295,581.5C 295.494,579.866 295.66,578.199 295.5,576.5 Z"/></g>
<g><path style="opacity:1" fill="#2e5d75" d="M 167.5,588.5 C 171.214,588.59 174.548,589.59 177.5,591.5C 173.838,591.277 170.505,590.277 167.5,588.5 Z"/></g>
<g><path style="opacity:1" fill="#2c87a3" d="M 177.5,591.5 C 179.898,591.259 181.898,591.926 183.5,593.5C 181.102,593.741 179.102,593.074 177.5,591.5 Z"/></g>
<g><path style="opacity:1" fill="#868c8e" d="M 658.5,575.5 C 658.938,575.565 659.272,575.399 659.5,575C 655.473,570.973 651.473,566.973 647.5,563C 650.672,562.849 652.839,564.349 654,567.5C 654.333,566.833 654.667,566.167 655,565.5C 655.219,566.938 655.719,568.271 656.5,569.5C 659.398,570.563 661.898,572.23 664,574.5C 666.823,573.591 669.657,573.424 672.5,574C 671.809,572.933 671.309,571.766 671,570.5C 668.455,571.797 665.955,571.631 663.5,570C 662.944,567.763 661.944,565.763 660.5,564C 664.113,565.886 667.946,567.72 672,569.5C 672.617,568.551 672.451,567.718 671.5,567C 673.107,566.885 674.607,567.385 676,568.5C 677.684,568.317 677.85,567.65 676.5,566.5C 680.194,568.545 683.86,570.545 687.5,572.5C 687.5,573.5 687.5,574.5 687.5,575.5C 693.403,577.118 698.736,579.785 703.5,583.5C 704.429,584.315 705.429,585.148 706.5,586C 718.254,589.878 729.92,593.878 741.5,598C 744.817,598.498 748.15,598.665 751.5,598.5C 766.029,600.462 780.363,599.295 794.5,595C 798.339,593.385 801.839,591.219 805,588.5C 807.726,584.473 809.559,580.14 810.5,575.5C 820.748,611.173 809.082,637.007 775.5,653C 772.904,654.136 770.237,654.969 767.5,655.5C 766.262,655.19 766.262,654.69 767.5,654C 771.729,652.885 775.729,651.219 779.5,649C 776.372,648.159 773.372,647.325 770.5,646.5C 780.295,644.356 788.629,639.689 795.5,632.5C 784.964,632.422 774.297,632.422 763.5,632.5C 773.479,631.995 783.146,630.995 792.5,629.5C 782.815,629.918 773.149,629.251 763.5,627.5C 767.455,627.48 771.455,627.146 775.5,626.5C 771.5,625.667 767.5,624.833 763.5,624C 764.793,623.51 766.127,623.343 767.5,623.5C 767.5,622.5 767.5,621.5 767.5,620.5C 762.167,620.5 756.833,620.5 751.5,620.5C 751.5,621.5 751.5,622.5 751.5,623.5C 738.167,620.833 724.833,618.167 711.5,615.5C 711.5,613.833 711.5,612.167 711.5,610.5C 708.833,610.5 706.167,610.5 703.5,610.5C 703.453,606.352 705.453,604.852 709.5,606C 707.405,606.556 707.238,607.056 709,607.5C 711.352,607.265 713.852,607.099 716.5,607C 718.349,605.32 720.349,603.82 722.5,602.5C 718.767,602.597 715.101,602.264 711.5,601.5C 687.466,594.547 663.466,587.047 639.5,579C 603.715,562.618 566.382,552.118 527.5,547.5C 513.339,546.669 499.006,546.169 484.5,546C 484.167,545.667 483.833,545.333 483.5,545C 489.5,544.667 495.5,544.333 501.5,544C 502.167,543.667 502.833,543.333 503.5,543C 499.833,542.667 496.167,542.333 492.5,542C 495.613,540.374 498.779,540.208 502,541.5C 507.796,540.731 513.629,540.231 519.5,540C 505.989,539.801 492.656,539.634 479.5,539.5C 503.627,536.45 527.627,537.283 551.5,542C 587.906,550.414 623.24,561.914 657.5,576.5C 658.107,576.376 658.44,576.043 658.5,575.5 Z"/></g>
<g><path style="opacity:1" fill="#3893c9" d="M 751.5,598.5 C 748.15,598.665 744.817,598.498 741.5,598C 729.92,593.878 718.254,589.878 706.5,586C 705.429,585.148 704.429,584.315 703.5,583.5C 708.511,585.831 713.844,587.165 719.5,587.5C 719.703,585.61 719.037,584.11 717.5,583C 719.425,583.135 721.425,583.302 723.5,583.5C 723.503,586.675 724.503,589.508 726.5,592C 733.034,593.373 739.534,594.873 746,596.5C 747.825,596.057 749.658,595.723 751.5,595.5C 751.5,596.5 751.5,597.5 751.5,598.5 Z"/></g>
<g><path style="opacity:1" fill="#040607" d="M 177.5,578.5 C 223.006,585.149 268.672,590.482 314.5,594.5C 388.262,599.762 461.929,606.095 535.5,613.5C 592.5,618.59 649.5,623.756 706.5,629C 725.488,630.448 744.488,631.614 763.5,632.5C 774.297,632.422 784.964,632.422 795.5,632.5C 788.629,639.689 780.295,644.356 770.5,646.5C 748.485,651.687 726.151,654.02 703.5,653.5C 687.381,653.985 671.381,652.819 655.5,650C 630.306,645.792 605.306,641.292 580.5,636.5C 575.619,634.653 570.452,633.32 565,632.5C 554.234,630.58 543.401,629.246 532.5,628.5C 509.529,624.92 486.529,621.587 463.5,618.5C 460.833,617.833 458.167,617.167 455.5,616.5C 446.116,614.065 436.449,612.731 426.5,612.5C 416.446,611.635 406.446,610.302 396.5,608.5C 395.5,608.667 394.5,608.833 393.5,609C 419.518,613.956 445.518,618.789 471.5,623.5C 516.941,632.859 562.274,642.859 607.5,653.5C 600.371,653.618 593.537,652.284 587,649.5C 577.808,650.189 568.641,651.189 559.5,652.5C 560.665,653.584 561.998,654.417 563.5,655C 559.833,655.333 556.167,655.667 552.5,656C 551.304,656.654 551.304,657.154 552.5,657.5C 553.891,656.355 555.224,656.355 556.5,657.5C 554.709,658.17 553.042,658.837 551.5,659.5C 545.573,657.852 539.573,656.518 533.5,655.5C 489.21,644.372 444.543,634.372 399.5,625.5C 375.775,619.816 351.775,614.649 327.5,610C 276.614,600.8 225.947,591.3 175.5,581.5C 175.782,580.222 176.449,579.222 177.5,578.5 Z"/></g>
<g><path style="opacity:1" fill="#2096ca" d="M 426.5,612.5 C 435.96,614.375 445.627,615.708 455.5,616.5C 458.167,617.167 460.833,617.833 463.5,618.5C 460.482,618.335 457.482,618.502 454.5,619C 460.41,620.074 466.077,621.574 471.5,623.5C 445.518,618.789 419.518,613.956 393.5,609C 394.5,608.833 395.5,608.667 396.5,608.5C 406.446,610.302 416.446,611.635 426.5,612.5 Z"/></g>
<g><path style="opacity:1" fill="#051730" d="M 426.5,612.5 C 436.449,612.731 446.116,614.065 455.5,616.5C 445.627,615.708 435.96,614.375 426.5,612.5 Z"/></g>
<g><path style="opacity:1" fill="#04070b" d="M 162.5,582.5 C 238.545,597.635 313.545,616.301 387.5,638.5C 381.433,641.02 375.099,642.853 368.5,644C 368.043,644.414 367.709,644.914 367.5,645.5C 372.963,647.301 377.963,646.634 382.5,643.5C 383.429,644.689 383.762,646.022 383.5,647.5C 380.521,648.317 377.521,649.151 374.5,650C 375.793,650.49 377.127,650.657 378.5,650.5C 378.67,651.822 378.337,652.989 377.5,654C 378.381,654.708 379.047,655.542 379.5,656.5C 359.562,649.632 339.562,642.965 319.5,636.5C 274.8,620.602 229.467,606.269 183.5,593.5C 181.898,591.926 179.898,591.259 177.5,591.5C 174.548,589.59 171.214,588.59 167.5,588.5C 161.753,588.086 156.42,586.419 151.5,583.5C 152.167,583.167 152.833,582.833 153.5,582.5C 155.236,583.425 157.07,584.092 159,584.5C 160.681,584.392 161.848,583.725 162.5,582.5 Z"/></g>
<g><path style="opacity:1" fill="#707376" d="M 175.5,581.5 C 225.947,591.3 276.614,600.8 327.5,610C 351.775,614.649 375.775,619.816 399.5,625.5C 396.903,625.721 396.903,626.221 399.5,627C 397.833,627.333 396.167,627.667 394.5,628C 395.167,628.333 395.833,628.667 396.5,629C 393.43,628.008 390.43,628.341 387.5,630C 390.763,630.064 393.763,630.898 396.5,632.5C 397.167,631.833 397.833,631.167 398.5,630.5C 398.894,633.244 399.227,636.244 399.5,639.5C 396.737,639.204 394.237,638.204 392,636.5C 391.005,637.066 390.172,637.733 389.5,638.5C 388.833,638.5 388.167,638.5 387.5,638.5C 313.545,616.301 238.545,597.635 162.5,582.5C 159.587,581.759 156.587,581.259 153.5,581C 155.199,580.042 157.033,579.542 159,579.5C 164.434,580.754 169.934,581.421 175.5,581.5 Z"/></g>
<g><path style="opacity:1" fill="#168eca" d="M 183.5,593.5 C 229.467,606.269 274.8,620.602 319.5,636.5C 311.925,635.216 304.592,633.049 297.5,630C 294.167,629.333 290.833,629.333 287.5,630C 293.311,632.572 299.311,634.572 305.5,636C 306.756,636.417 307.423,637.25 307.5,638.5C 272.933,626.05 238.267,613.883 203.5,602C 196.628,599.39 189.962,596.557 183.5,593.5 Z"/></g>
<g><path style="opacity:1" fill="#071728" d="M 532.5,628.5 C 543.401,629.246 554.234,630.58 565,632.5C 570.452,633.32 575.619,634.653 580.5,636.5C 564.317,634.247 548.317,631.581 532.5,628.5 Z"/></g>
<g><path style="opacity:1" fill="#767a7d" d="M 399.5,625.5 C 444.543,634.372 489.21,644.372 533.5,655.5C 537.192,657.554 541.192,659.054 545.5,660C 542.874,660.995 540.207,661.328 537.5,661C 541.5,660.333 541.5,659.667 537.5,659C 534.479,658.327 531.479,657.993 528.5,658C 530.962,659.216 533.629,659.882 536.5,660C 535.051,661.117 533.384,661.784 531.5,662C 534.167,662.333 536.833,662.667 539.5,663C 524.5,663.333 509.5,663.667 494.5,664C 494.677,666.289 494.677,668.456 494.5,670.5C 489.054,668.361 483.554,666.361 478,664.5C 477.235,664.57 476.735,664.903 476.5,665.5C 447.592,656.213 418.592,647.213 389.5,638.5C 390.172,637.733 391.005,637.066 392,636.5C 394.237,638.204 396.737,639.204 399.5,639.5C 399.227,636.244 398.894,633.244 398.5,630.5C 397.833,631.167 397.167,631.833 396.5,632.5C 393.763,630.898 390.763,630.064 387.5,630C 390.43,628.341 393.43,628.008 396.5,629C 395.833,628.667 395.167,628.333 394.5,628C 396.167,627.667 397.833,627.333 399.5,627C 396.903,626.221 396.903,625.721 399.5,625.5 Z"/></g>
<g><path style="opacity:1" fill="#0e8bce" d="M 319.5,636.5 C 339.562,642.965 359.562,649.632 379.5,656.5C 406.912,666.971 434.246,677.637 461.5,688.5C 461.062,688.435 460.728,688.601 460.5,689C 472.168,693.726 483.834,698.559 495.5,703.5C 492.26,703.976 488.927,703.976 485.5,703.5C 458.767,694.644 432.101,685.478 405.5,676C 372.6,663.701 339.934,651.201 307.5,638.5C 307.423,637.25 306.756,636.417 305.5,636C 299.311,634.572 293.311,632.572 287.5,630C 290.833,629.333 294.167,629.333 297.5,630C 304.592,633.049 311.925,635.216 319.5,636.5 Z"/></g>
<g><path style="opacity:1" fill="#0c8ed2" d="M 463.5,618.5 C 486.529,621.587 509.529,624.92 532.5,628.5C 548.317,631.581 564.317,634.247 580.5,636.5C 605.306,641.292 630.306,645.792 655.5,650C 671.381,652.819 687.381,653.985 703.5,653.5C 703.5,654.833 703.5,656.167 703.5,657.5C 714.385,658.373 725.051,660.04 735.5,662.5C 735.5,662.833 735.5,663.167 735.5,663.5C 696.054,667.363 657.054,664.696 618.5,655.5C 614.833,654.833 611.167,654.167 607.5,653.5C 562.274,642.859 516.941,632.859 471.5,623.5C 466.077,621.574 460.41,620.074 454.5,619C 457.482,618.502 460.482,618.335 463.5,618.5 Z"/></g>
<g><path style="opacity:1" fill="#79848a" d="M 770.5,646.5 C 773.372,647.325 776.372,648.159 779.5,649C 775.729,651.219 771.729,652.885 767.5,654C 766.262,654.69 766.262,655.19 767.5,655.5C 757.217,659.067 746.551,661.401 735.5,662.5C 725.051,660.04 714.385,658.373 703.5,657.5C 703.5,656.167 703.5,654.833 703.5,653.5C 726.151,654.02 748.485,651.687 770.5,646.5 Z"/></g>
<g><path style="opacity:1" fill="#7b8083" d="M 533.5,655.5 C 539.573,656.518 545.573,657.852 551.5,659.5C 583.784,667.085 615.784,675.418 647.5,684.5C 652.202,686.022 656.869,687.855 661.5,690C 660.167,690 658.833,690 657.5,690C 658.167,690.667 658.833,691.333 659.5,692C 653.272,695.116 646.605,696.283 639.5,695.5C 639.5,696.5 639.5,697.5 639.5,698.5C 629.71,699.656 620.21,701.989 611,705.5C 609.527,705.097 608.194,704.43 607,703.5C 605.148,705.23 605.314,706.396 607.5,707C 603.197,708.236 602.197,707.402 604.5,704.5C 604.167,704.167 603.833,703.833 603.5,703.5C 602.281,704.263 601.281,705.263 600.5,706.5C 593.929,704.255 587.429,701.922 581,699.5C 580.235,699.57 579.735,699.903 579.5,700.5C 545.125,689.042 510.792,677.375 476.5,665.5C 476.735,664.903 477.235,664.57 478,664.5C 483.554,666.361 489.054,668.361 494.5,670.5C 494.677,668.456 494.677,666.289 494.5,664C 509.5,663.667 524.5,663.333 539.5,663C 536.833,662.667 534.167,662.333 531.5,662C 533.384,661.784 535.051,661.117 536.5,660C 533.629,659.882 530.962,659.216 528.5,658C 531.479,657.993 534.479,658.327 537.5,659C 541.5,659.667 541.5,660.333 537.5,661C 540.207,661.328 542.874,660.995 545.5,660C 541.192,659.054 537.192,657.554 533.5,655.5 Z"/></g>
<g><path style="opacity:1" fill="#050813" d="M 618.5,655.5 C 657.054,664.696 696.054,667.363 735.5,663.5C 732.977,664.384 730.31,665.218 727.5,666C 720.809,666.169 714.142,666.669 707.5,667.5C 708.381,668.971 709.714,669.804 711.5,670C 698.87,670.644 696.203,670.477 703.5,669.5C 703.5,668.5 703.5,667.5 703.5,666.5C 688.806,666.428 674.139,665.762 659.5,664.5C 651.582,666.759 643.582,668.259 635.5,669C 639.118,666.591 643.118,665.091 647.5,664.5C 642.523,662.916 637.523,662.583 632.5,663.5C 632.36,662.431 632.36,661.264 632.5,660C 629.577,658.368 626.577,658.201 623.5,659.5C 624.665,660.584 625.998,661.417 627.5,662C 626.167,662.667 624.833,662.667 623.5,662C 622.335,660.916 621.002,660.083 619.5,659.5C 618.571,658.311 618.238,656.978 618.5,655.5 Z"/></g>
<g><path style="opacity:1" fill="#909699" d="M 737.5,671.5 C 769.965,677.469 802.299,684.302 834.5,692C 825.629,697.268 816.629,702.268 807.5,707C 804.833,707.667 802.167,707.667 799.5,707C 766.808,696.768 733.808,687.768 700.5,680C 713.37,678.862 725.704,676.029 737.5,671.5 Z"/></g>
<g><path style="opacity:1" fill="#1991cc" d="M 461.5,688.5 C 488.399,698.618 515.066,709.284 541.5,720.5C 540.508,720.328 539.842,720.662 539.5,721.5C 521.091,716.475 503.091,710.475 485.5,703.5C 488.927,703.976 492.26,703.976 495.5,703.5C 483.834,698.559 472.168,693.726 460.5,689C 460.728,688.601 461.062,688.435 461.5,688.5 Z"/></g>
<g><path style="opacity:1" fill="#888f92" d="M 647.5,684.5 C 655.561,686.015 663.561,687.848 671.5,690C 706.269,699.525 740.936,709.359 775.5,719.5C 746.875,729.258 717.541,735.758 687.5,739C 651.65,725.662 615.65,712.828 579.5,700.5C 579.735,699.903 580.235,699.57 581,699.5C 587.429,701.922 593.929,704.255 600.5,706.5C 601.281,705.263 602.281,704.263 603.5,703.5C 603.833,703.833 604.167,704.167 604.5,704.5C 602.197,707.402 603.197,708.236 607.5,707C 605.314,706.396 605.148,705.23 607,703.5C 608.194,704.43 609.527,705.097 611,705.5C 620.21,701.989 629.71,699.656 639.5,698.5C 639.5,697.5 639.5,696.5 639.5,695.5C 646.605,696.283 653.272,695.116 659.5,692C 658.833,691.333 658.167,690.667 657.5,690C 658.833,690 660.167,690 661.5,690C 656.869,687.855 652.202,686.022 647.5,684.5 Z"/></g>
<g><path style="opacity:1" fill="#3192b1" d="M 541.5,720.5 C 550.594,723.699 559.594,727.199 568.5,731C 558.579,728.526 548.912,725.359 539.5,721.5C 539.842,720.662 540.508,720.328 541.5,720.5 Z"/></g>
</svg>
